<?xml version="1.0" encoding="UTF-8" standalone="no"?>
<!DOCTYPE svg PUBLIC "-//W3C//DTD SVG 1.1//EN"
 "http://www.w3.org/Graphics/SVG/1.1/DTD/svg11.dtd">
<!-- Generated by graphviz version 2.43.0 (0)
 -->
<!-- Title: SedListOf Pages: 1 -->
<svg width="355pt" height="940pt"
 viewBox="0.00 0.00 355.00 940.00" xmlns="http://www.w3.org/2000/svg" xmlns:xlink="http://www.w3.org/1999/xlink">
<g id="graph0" class="graph" transform="scale(1 1) rotate(0) translate(4 936)">
<title>SedListOf</title>
<polygon fill="white" stroke="transparent" points="-4,4 -4,-936 351,-936 351,4 -4,4"/>
<!-- Node1 -->
<g id="node1" class="node">
<title>Node1</title>
<g id="a_node1"><a xlink:title=" ">
<polygon fill="#bfbfbf" stroke="black" points="92,-456.5 92,-475.5 153,-475.5 153,-456.5 92,-456.5"/>
<text text-anchor="middle" x="122.5" y="-463.5" font-family="FreeSans" font-size="10.00">SedListOf</text>
</a>
</g>
</g>
<!-- Node3 -->
<g id="node3" class="node">
<title>Node3</title>
<g id="a_node3"><a xlink:href="../../d0/d8c/classSedListOfAdjustableParameters.html" target="_top" xlink:title=" ">
<polygon fill="white" stroke="black" points="189.5,-912.5 189.5,-931.5 346.5,-931.5 346.5,-912.5 189.5,-912.5"/>
<text text-anchor="middle" x="268" y="-919.5" font-family="FreeSans" font-size="10.00">SedListOfAdjustableParameters</text>
</a>
</g>
</g>
<!-- Node1&#45;&gt;Node3 -->
<g id="edge2" class="edge">
<title>Node1&#45;&gt;Node3</title>
<path fill="none" stroke="midnightblue" d="M123.65,-486.09C124.64,-563.45 132.15,-840.78 189,-903 192.48,-906.81 196.58,-909.91 201.05,-912.43"/>
<polygon fill="midnightblue" stroke="midnightblue" points="127.15,-485.78 123.54,-475.82 120.15,-485.85 127.15,-485.78"/>
</g>
<!-- Node4 -->
<g id="node4" class="node">
<title>Node4</title>
<g id="a_node4"><a xlink:href="../../d6/dbf/classSedListOfAlgorithmParameters.html" target="_top" xlink:title=" ">
<polygon fill="white" stroke="black" points="192,-874.5 192,-893.5 344,-893.5 344,-874.5 192,-874.5"/>
<text text-anchor="middle" x="268" y="-881.5" font-family="FreeSans" font-size="10.00">SedListOfAlgorithmParameters</text>
</a>
</g>
</g>
<!-- Node1&#45;&gt;Node4 -->
<g id="edge3" class="edge">
<title>Node1&#45;&gt;Node4</title>
<path fill="none" stroke="midnightblue" d="M123.95,-485.73C126.03,-558.26 136.92,-808.79 189,-865 192.5,-868.78 196.63,-871.87 201.11,-874.38"/>
<polygon fill="midnightblue" stroke="midnightblue" points="127.45,-485.58 123.69,-475.68 120.45,-485.77 127.45,-485.58"/>
</g>
<!-- Node5 -->
<g id="node5" class="node">
<title>Node5</title>
<g id="a_node5"><a xlink:href="../../d1/dea/classSedListOfAppliedDimensions.html" target="_top" xlink:title=" ">
<polygon fill="white" stroke="black" points="196,-836.5 196,-855.5 340,-855.5 340,-836.5 196,-836.5"/>
<text text-anchor="middle" x="268" y="-843.5" font-family="FreeSans" font-size="10.00">SedListOfAppliedDimensions</text>
</a>
</g>
</g>
<!-- Node1&#45;&gt;Node5 -->
<g id="edge4" class="edge">
<title>Node1&#45;&gt;Node5</title>
<path fill="none" stroke="midnightblue" d="M124.34,-486.02C127.63,-554.34 141.82,-776.93 189,-827 192.54,-830.75 196.68,-833.82 201.18,-836.32"/>
<polygon fill="midnightblue" stroke="midnightblue" points="127.83,-485.6 123.88,-475.77 120.83,-485.92 127.83,-485.6"/>
</g>
<!-- Node6 -->
<g id="node6" class="node">
<title>Node6</title>
<g id="a_node6"><a xlink:href="../../dd/d61/classSedListOfChanges.html" target="_top" xlink:title=" ">
<polygon fill="white" stroke="black" points="218.5,-798.5 218.5,-817.5 317.5,-817.5 317.5,-798.5 218.5,-798.5"/>
<text text-anchor="middle" x="268" y="-805.5" font-family="FreeSans" font-size="10.00">SedListOfChanges</text>
</a>
</g>
</g>
<!-- Node1&#45;&gt;Node6 -->
<g id="edge5" class="edge">
<title>Node1&#45;&gt;Node6</title>
<path fill="none" stroke="midnightblue" d="M124.8,-485.93C129.35,-549.36 146.62,-744.94 189,-789 196.83,-797.14 207.51,-802.03 218.46,-804.91"/>
<polygon fill="midnightblue" stroke="midnightblue" points="128.28,-485.43 124.1,-475.69 121.29,-485.91 128.28,-485.43"/>
</g>
<!-- Node7 -->
<g id="node7" class="node">
<title>Node7</title>
<g id="a_node7"><a xlink:href="../../d0/d2b/classSedListOfCurves.html" target="_top" xlink:title=" ">
<polygon fill="white" stroke="black" points="222,-760.5 222,-779.5 314,-779.5 314,-760.5 222,-760.5"/>
<text text-anchor="middle" x="268" y="-767.5" font-family="FreeSans" font-size="10.00">SedListOfCurves</text>
</a>
</g>
</g>
<!-- Node1&#45;&gt;Node7 -->
<g id="edge6" class="edge">
<title>Node1&#45;&gt;Node7</title>
<path fill="none" stroke="midnightblue" d="M125.38,-485.84C131.29,-544.09 151.39,-712.89 189,-751 197.71,-759.83 209.8,-764.81 221.85,-767.56"/>
<polygon fill="midnightblue" stroke="midnightblue" points="128.85,-485.35 124.38,-475.74 121.88,-486.03 128.85,-485.35"/>
</g>
<!-- Node8 -->
<g id="node8" class="node">
<title>Node8</title>
<g id="a_node8"><a xlink:href="../../d0/d5b/classSedListOfDataDescriptions.html" target="_top" xlink:title=" ">
<polygon fill="white" stroke="black" points="200.5,-722.5 200.5,-741.5 335.5,-741.5 335.5,-722.5 200.5,-722.5"/>
<text text-anchor="middle" x="268" y="-729.5" font-family="FreeSans" font-size="10.00">SedListOfDataDescriptions</text>
</a>
</g>
</g>
<!-- Node1&#45;&gt;Node8 -->
<g id="edge7" class="edge">
<title>Node1&#45;&gt;Node8</title>
<path fill="none" stroke="midnightblue" d="M126.09,-485.57C133.46,-538.17 156.08,-680.75 189,-713 192.88,-716.8 197.39,-719.89 202.25,-722.39"/>
<polygon fill="midnightblue" stroke="midnightblue" points="129.54,-484.96 124.72,-475.53 122.61,-485.91 129.54,-484.96"/>
</g>
<!-- Node9 -->
<g id="node9" class="node">
<title>Node9</title>
<g id="a_node9"><a xlink:href="../../de/d3d/classSedListOfDataGenerators.html" target="_top" xlink:title=" ">
<polygon fill="white" stroke="black" points="203.5,-684.5 203.5,-703.5 332.5,-703.5 332.5,-684.5 203.5,-684.5"/>
<text text-anchor="middle" x="268" y="-691.5" font-family="FreeSans" font-size="10.00">SedListOfDataGenerators</text>
</a>
</g>
</g>
<!-- Node1&#45;&gt;Node9 -->
<g id="edge8" class="edge">
<title>Node1&#45;&gt;Node9</title>
<path fill="none" stroke="midnightblue" d="M123.62,-485.75C124.98,-527.2 134.22,-623.66 189,-675 193.17,-678.91 198,-682.05 203.18,-684.57"/>
<polygon fill="midnightblue" stroke="midnightblue" points="127.11,-485.53 123.41,-475.6 120.11,-485.67 127.11,-485.53"/>
</g>
<!-- Node10 -->
<g id="node10" class="node">
<title>Node10</title>
<g id="a_node10"><a xlink:href="../../dc/df8/classSedListOfDataSets.html" target="_top" xlink:title=" ">
<polygon fill="white" stroke="black" points="217.5,-646.5 217.5,-665.5 318.5,-665.5 318.5,-646.5 217.5,-646.5"/>
<text text-anchor="middle" x="268" y="-653.5" font-family="FreeSans" font-size="10.00">SedListOfDataSets</text>
</a>
</g>
</g>
<!-- Node1&#45;&gt;Node10 -->
<g id="edge9" class="edge">
<title>Node1&#45;&gt;Node10</title>
<path fill="none" stroke="midnightblue" d="M125.25,-486.05C129.49,-521.91 143.57,-597 189,-637 196.95,-644 207.05,-648.52 217.33,-651.41"/>
<polygon fill="midnightblue" stroke="midnightblue" points="128.71,-485.47 124.19,-475.88 121.75,-486.19 128.71,-485.47"/>
</g>
<!-- Node11 -->
<g id="node11" class="node">
<title>Node11</title>
<g id="a_node11"><a xlink:href="../../df/da8/classSedListOfDataSources.html" target="_top" xlink:title=" ">
<polygon fill="white" stroke="black" points="209.5,-608.5 209.5,-627.5 326.5,-627.5 326.5,-608.5 209.5,-608.5"/>
<text text-anchor="middle" x="268" y="-615.5" font-family="FreeSans" font-size="10.00">SedListOfDataSources</text>
</a>
</g>
</g>
<!-- Node1&#45;&gt;Node11 -->
<g id="edge10" class="edge">
<title>Node1&#45;&gt;Node11</title>
<path fill="none" stroke="midnightblue" d="M127.62,-485.67C134.81,-514.97 152.5,-569.72 189,-599 194.98,-603.8 201.99,-607.41 209.31,-610.13"/>
<polygon fill="midnightblue" stroke="midnightblue" points="131,-484.77 125.36,-475.8 124.18,-486.33 131,-484.77"/>
</g>
<!-- Node12 -->
<g id="node12" class="node">
<title>Node12</title>
<g id="a_node12"><a xlink:href="../../db/dfa/classSedListOfExperimentReferences.html" target="_top" xlink:title=" ">
<polygon fill="white" stroke="black" points="189,-570.5 189,-589.5 347,-589.5 347,-570.5 189,-570.5"/>
<text text-anchor="middle" x="268" y="-577.5" font-family="FreeSans" font-size="10.00">SedListOfExperimentReferences</text>
</a>
</g>
</g>
<!-- Node1&#45;&gt;Node12 -->
<g id="edge11" class="edge">
<title>Node1&#45;&gt;Node12</title>
<path fill="none" stroke="midnightblue" d="M131.36,-484.73C141.45,-506.46 161.08,-541.78 189,-561 194.62,-564.87 200.95,-567.96 207.51,-570.42"/>
<polygon fill="midnightblue" stroke="midnightblue" points="134.53,-483.26 127.28,-475.54 128.14,-486.1 134.53,-483.26"/>
</g>
<!-- Node13 -->
<g id="node13" class="node">
<title>Node13</title>
<g id="a_node13"><a xlink:href="../../d4/d6b/classSedListOfFitExperiments.html" target="_top" xlink:title=" ">
<polygon fill="white" stroke="black" points="205.5,-532.5 205.5,-551.5 330.5,-551.5 330.5,-532.5 205.5,-532.5"/>
<text text-anchor="middle" x="268" y="-539.5" font-family="FreeSans" font-size="10.00">SedListOfFitExperiments</text>
</a>
</g>
</g>
<!-- Node1&#45;&gt;Node13 -->
<g id="edge12" class="edge">
<title>Node1&#45;&gt;Node13</title>
<path fill="none" stroke="midnightblue" d="M138.62,-482.99C150.96,-495.83 169.49,-512.9 189,-523 196.43,-526.84 204.66,-529.93 212.91,-532.4"/>
<polygon fill="midnightblue" stroke="midnightblue" points="141.16,-480.58 131.79,-475.65 136.04,-485.35 141.16,-480.58"/>
</g>
<!-- Node14 -->
<g id="node14" class="node">
<title>Node14</title>
<g id="a_node14"><a xlink:href="../../d2/d34/classSedListOfFitMappings.html" target="_top" xlink:title=" ">
<polygon fill="white" stroke="black" points="211,-494.5 211,-513.5 325,-513.5 325,-494.5 211,-494.5"/>
<text text-anchor="middle" x="268" y="-501.5" font-family="FreeSans" font-size="10.00">SedListOfFitMappings</text>
</a>
</g>
</g>
<!-- Node1&#45;&gt;Node14 -->
<g id="edge13" class="edge">
<title>Node1&#45;&gt;Node14</title>
<path fill="none" stroke="midnightblue" d="M162.9,-477.73C171.48,-480.2 180.53,-482.74 189,-485 201.12,-488.23 214.36,-491.54 226.43,-494.47"/>
<polygon fill="midnightblue" stroke="midnightblue" points="163.68,-474.31 153.1,-474.88 161.72,-481.03 163.68,-474.31"/>
</g>
<!-- Node15 -->
<g id="node15" class="node">
<title>Node15</title>
<g id="a_node15"><a xlink:href="../../dd/d00/classSedListOfModels.html" target="_top" xlink:title=" ">
<polygon fill="white" stroke="black" points="222,-456.5 222,-475.5 314,-475.5 314,-456.5 222,-456.5"/>
<text text-anchor="middle" x="268" y="-463.5" font-family="FreeSans" font-size="10.00">SedListOfModels</text>
</a>
</g>
</g>
<!-- Node1&#45;&gt;Node15 -->
<g id="edge14" class="edge">
<title>Node1&#45;&gt;Node15</title>
<path fill="none" stroke="midnightblue" d="M163.46,-466C181.56,-466 203.05,-466 221.75,-466"/>
<polygon fill="midnightblue" stroke="midnightblue" points="163.23,-462.5 153.23,-466 163.23,-469.5 163.23,-462.5"/>
</g>
<!-- Node16 -->
<g id="node16" class="node">
<title>Node16</title>
<g id="a_node16"><a xlink:href="../../db/d86/classSedListOfOutputs.html" target="_top" xlink:title=" ">
<polygon fill="white" stroke="black" points="220.5,-418.5 220.5,-437.5 315.5,-437.5 315.5,-418.5 220.5,-418.5"/>
<text text-anchor="middle" x="268" y="-425.5" font-family="FreeSans" font-size="10.00">SedListOfOutputs</text>
</a>
</g>
</g>
<!-- Node1&#45;&gt;Node16 -->
<g id="edge15" class="edge">
<title>Node1&#45;&gt;Node16</title>
<path fill="none" stroke="midnightblue" d="M162.9,-454.27C171.48,-451.8 180.53,-449.26 189,-447 201.12,-443.77 214.36,-440.46 226.43,-437.53"/>
<polygon fill="midnightblue" stroke="midnightblue" points="161.72,-450.97 153.1,-457.12 163.68,-457.69 161.72,-450.97"/>
</g>
<!-- Node17 -->
<g id="node17" class="node">
<title>Node17</title>
<g id="a_node17"><a xlink:href="../../d1/d4b/classSedListOfParameters.html" target="_top" xlink:title=" ">
<polygon fill="white" stroke="black" points="212.5,-380.5 212.5,-399.5 323.5,-399.5 323.5,-380.5 212.5,-380.5"/>
<text text-anchor="middle" x="268" y="-387.5" font-family="FreeSans" font-size="10.00">SedListOfParameters</text>
</a>
</g>
</g>
<!-- Node1&#45;&gt;Node17 -->
<g id="edge16" class="edge">
<title>Node1&#45;&gt;Node17</title>
<path fill="none" stroke="midnightblue" d="M138.62,-449.01C150.96,-436.17 169.49,-419.1 189,-409 196.43,-405.16 204.66,-402.07 212.91,-399.6"/>
<polygon fill="midnightblue" stroke="midnightblue" points="136.04,-446.65 131.79,-456.35 141.16,-451.42 136.04,-446.65"/>
</g>
<!-- Node18 -->
<g id="node18" class="node">
<title>Node18</title>
<g id="a_node18"><a xlink:href="../../d6/db9/classSedListOfRanges.html" target="_top" xlink:title=" ">
<polygon fill="white" stroke="black" points="221,-342.5 221,-361.5 315,-361.5 315,-342.5 221,-342.5"/>
<text text-anchor="middle" x="268" y="-349.5" font-family="FreeSans" font-size="10.00">SedListOfRanges</text>
</a>
</g>
</g>
<!-- Node1&#45;&gt;Node18 -->
<g id="edge17" class="edge">
<title>Node1&#45;&gt;Node18</title>
<path fill="none" stroke="midnightblue" d="M131.36,-447.27C141.45,-425.54 161.08,-390.22 189,-371 198.41,-364.52 209.8,-360.24 220.93,-357.42"/>
<polygon fill="midnightblue" stroke="midnightblue" points="128.14,-445.9 127.28,-456.46 134.53,-448.74 128.14,-445.9"/>
</g>
<!-- Node19 -->
<g id="node19" class="node">
<title>Node19</title>
<g id="a_node19"><a xlink:href="../../df/d84/classSedListOfSetValues.html" target="_top" xlink:title=" ">
<polygon fill="white" stroke="black" points="215,-304.5 215,-323.5 321,-323.5 321,-304.5 215,-304.5"/>
<text text-anchor="middle" x="268" y="-311.5" font-family="FreeSans" font-size="10.00">SedListOfSetValues</text>
</a>
</g>
</g>
<!-- Node1&#45;&gt;Node19 -->
<g id="edge18" class="edge">
<title>Node1&#45;&gt;Node19</title>
<path fill="none" stroke="midnightblue" d="M127.62,-446.33C134.81,-417.03 152.5,-362.28 189,-333 196.5,-326.98 205.63,-322.83 214.95,-319.97"/>
<polygon fill="midnightblue" stroke="midnightblue" points="124.18,-445.67 125.36,-456.2 131,-447.23 124.18,-445.67"/>
</g>
<!-- Node20 -->
<g id="node20" class="node">
<title>Node20</title>
<g id="a_node20"><a xlink:href="../../de/d93/classSedListOfSimulations.html" target="_top" xlink:title=" ">
<polygon fill="white" stroke="black" points="212,-266.5 212,-285.5 324,-285.5 324,-266.5 212,-266.5"/>
<text text-anchor="middle" x="268" y="-273.5" font-family="FreeSans" font-size="10.00">SedListOfSimulations</text>
</a>
</g>
</g>
<!-- Node1&#45;&gt;Node20 -->
<g id="edge19" class="edge">
<title>Node1&#45;&gt;Node20</title>
<path fill="none" stroke="midnightblue" d="M125.25,-445.95C129.49,-410.09 143.57,-335 189,-295 195.49,-289.29 203.4,-285.23 211.68,-282.36"/>
<polygon fill="midnightblue" stroke="midnightblue" points="121.75,-445.81 124.19,-456.12 128.71,-446.53 121.75,-445.81"/>
</g>
<!-- Node21 -->
<g id="node21" class="node">
<title>Node21</title>
<g id="a_node21"><a xlink:href="../../d1/d03/classSedListOfSlices.html" target="_top" xlink:title=" ">
<polygon fill="white" stroke="black" points="224,-228.5 224,-247.5 312,-247.5 312,-228.5 224,-228.5"/>
<text text-anchor="middle" x="268" y="-235.5" font-family="FreeSans" font-size="10.00">SedListOfSlices</text>
</a>
</g>
</g>
<!-- Node1&#45;&gt;Node21 -->
<g id="edge20" class="edge">
<title>Node1&#45;&gt;Node21</title>
<path fill="none" stroke="midnightblue" d="M123.62,-446.25C124.98,-404.8 134.22,-308.34 189,-257 198.46,-248.14 211.34,-243.2 223.91,-240.52"/>
<polygon fill="midnightblue" stroke="midnightblue" points="120.11,-446.33 123.41,-456.4 127.11,-446.47 120.11,-446.33"/>
</g>
<!-- Node22 -->
<g id="node22" class="node">
<title>Node22</title>
<g id="a_node22"><a xlink:href="../../d3/d99/classSedListOfStyles.html" target="_top" xlink:title=" ">
<polygon fill="white" stroke="black" points="224,-190.5 224,-209.5 312,-209.5 312,-190.5 224,-190.5"/>
<text text-anchor="middle" x="268" y="-197.5" font-family="FreeSans" font-size="10.00">SedListOfStyles</text>
</a>
</g>
</g>
<!-- Node1&#45;&gt;Node22 -->
<g id="edge21" class="edge">
<title>Node1&#45;&gt;Node22</title>
<path fill="none" stroke="midnightblue" d="M126.09,-446.43C133.46,-393.83 156.08,-251.25 189,-219 198.26,-209.93 211.08,-204.94 223.66,-202.27"/>
<polygon fill="midnightblue" stroke="midnightblue" points="122.61,-446.09 124.72,-456.47 129.54,-447.04 122.61,-446.09"/>
</g>
<!-- Node23 -->
<g id="node23" class="node">
<title>Node23</title>
<g id="a_node23"><a xlink:href="../../d1/d75/classSedListOfSubPlots.html" target="_top" xlink:title=" ">
<polygon fill="white" stroke="black" points="217.5,-152.5 217.5,-171.5 318.5,-171.5 318.5,-152.5 217.5,-152.5"/>
<text text-anchor="middle" x="268" y="-159.5" font-family="FreeSans" font-size="10.00">SedListOfSubPlots</text>
</a>
</g>
</g>
<!-- Node1&#45;&gt;Node23 -->
<g id="edge22" class="edge">
<title>Node1&#45;&gt;Node23</title>
<path fill="none" stroke="midnightblue" d="M125.38,-446.16C131.29,-387.91 151.39,-219.11 189,-181 196.64,-173.26 206.86,-168.48 217.39,-165.56"/>
<polygon fill="midnightblue" stroke="midnightblue" points="121.88,-445.97 124.38,-456.26 128.85,-446.65 121.88,-445.97"/>
</g>
<!-- Node24 -->
<g id="node24" class="node">
<title>Node24</title>
<g id="a_node24"><a xlink:href="../../d5/db5/classSedListOfSubTasks.html" target="_top" xlink:title=" ">
<polygon fill="white" stroke="black" points="215.5,-114.5 215.5,-133.5 320.5,-133.5 320.5,-114.5 215.5,-114.5"/>
<text text-anchor="middle" x="268" y="-121.5" font-family="FreeSans" font-size="10.00">SedListOfSubTasks</text>
</a>
</g>
</g>
<!-- Node1&#45;&gt;Node24 -->
<g id="edge23" class="edge">
<title>Node1&#45;&gt;Node24</title>
<path fill="none" stroke="midnightblue" d="M124.8,-446.07C129.35,-382.64 146.62,-187.06 189,-143 196.05,-135.67 205.43,-130.97 215.22,-128"/>
<polygon fill="midnightblue" stroke="midnightblue" points="121.29,-446.09 124.1,-456.31 128.28,-446.57 121.29,-446.09"/>
</g>
<!-- Node25 -->
<g id="node25" class="node">
<title>Node25</title>
<g id="a_node25"><a xlink:href="../../db/df0/classSedListOfSurfaces.html" target="_top" xlink:title=" ">
<polygon fill="white" stroke="black" points="218,-76.5 218,-95.5 318,-95.5 318,-76.5 218,-76.5"/>
<text text-anchor="middle" x="268" y="-83.5" font-family="FreeSans" font-size="10.00">SedListOfSurfaces</text>
</a>
</g>
</g>
<!-- Node1&#45;&gt;Node25 -->
<g id="edge24" class="edge">
<title>Node1&#45;&gt;Node25</title>
<path fill="none" stroke="midnightblue" d="M124.34,-445.98C127.63,-377.66 141.82,-155.07 189,-105 196.65,-96.88 207.13,-91.99 217.93,-89.09"/>
<polygon fill="midnightblue" stroke="midnightblue" points="120.83,-446.08 123.88,-456.23 127.83,-446.4 120.83,-446.08"/>
</g>
<!-- Node26 -->
<g id="node26" class="node">
<title>Node26</title>
<g id="a_node26"><a xlink:href="../../d3/d80/classSedListOfTasks.html" target="_top" xlink:title=" ">
<polygon fill="white" stroke="black" points="224,-38.5 224,-57.5 312,-57.5 312,-38.5 224,-38.5"/>
<text text-anchor="middle" x="268" y="-45.5" font-family="FreeSans" font-size="10.00">SedListOfTasks</text>
</a>
</g>
</g>
<!-- Node1&#45;&gt;Node26 -->
<g id="edge25" class="edge">
<title>Node1&#45;&gt;Node26</title>
<path fill="none" stroke="midnightblue" d="M123.95,-446.27C126.03,-373.74 136.92,-123.21 189,-67 198,-57.29 211.06,-52.17 223.93,-49.57"/>
<polygon fill="midnightblue" stroke="midnightblue" points="120.45,-446.23 123.69,-456.32 127.45,-446.42 120.45,-446.23"/>
</g>
<!-- Node27 -->
<g id="node27" class="node">
<title>Node27</title>
<g id="a_node27"><a xlink:href="../../dc/d29/classSedListOfVariables.html" target="_top" xlink:title=" ">
<polygon fill="white" stroke="black" points="217.5,-0.5 217.5,-19.5 318.5,-19.5 318.5,-0.5 217.5,-0.5"/>
<text text-anchor="middle" x="268" y="-7.5" font-family="FreeSans" font-size="10.00">SedListOfVariables</text>
</a>
</g>
</g>
<!-- Node1&#45;&gt;Node27 -->
<g id="edge26" class="edge">
<title>Node1&#45;&gt;Node27</title>
<path fill="none" stroke="midnightblue" d="M123.65,-445.91C124.64,-368.55 132.15,-91.22 189,-29 196.43,-20.87 206.7,-15.95 217.35,-13.03"/>
<polygon fill="midnightblue" stroke="midnightblue" points="120.15,-446.15 123.54,-456.18 127.15,-446.22 120.15,-446.15"/>
</g>
<!-- Node2 -->
<g id="node2" class="node">
<title>Node2</title>
<g id="a_node2"><a xlink:href="../../d9/dfe/classSedBase.html" target="_top" xlink:title=" ">
<polygon fill="white" stroke="black" points="0,-456.5 0,-475.5 56,-475.5 56,-456.5 0,-456.5"/>
<text text-anchor="middle" x="28" y="-463.5" font-family="FreeSans" font-size="10.00">SedBase</text>
</a>
</g>
</g>
<!-- Node2&#45;&gt;Node1 -->
<g id="edge1" class="edge">
<title>Node2&#45;&gt;Node1</title>
<path fill="none" stroke="midnightblue" d="M66.33,-466C74.82,-466 83.73,-466 91.86,-466"/>
<polygon fill="midnightblue" stroke="midnightblue" points="66.25,-462.5 56.25,-466 66.25,-469.5 66.25,-462.5"/>
</g>
</g>
</svg>
