<?xml version="1.0" encoding="UTF-8" standalone="no"?>
<!DOCTYPE svg PUBLIC "-//W3C//DTD SVG 1.1//EN"
 "http://www.w3.org/Graphics/SVG/1.1/DTD/svg11.dtd">
<!-- Generated by graphviz version 2.43.0 (0)
 -->
<!-- Title: OStream Pages: 1 -->
<svg width="170pt" height="84pt"
 viewBox="0.00 0.00 169.50 84.00" xmlns="http://www.w3.org/2000/svg" xmlns:xlink="http://www.w3.org/1999/xlink">
<g id="graph0" class="graph" transform="scale(1 1) rotate(0) translate(4 80)">
<title>OStream</title>
<polygon fill="white" stroke="transparent" points="-4,4 -4,-80 165.5,-80 165.5,4 -4,4"/>
<!-- Node1 -->
<g id="node1" class="node">
<title>Node1</title>
<g id="a_node1"><a xlink:title=" ">
<polygon fill="#bfbfbf" stroke="black" points="48,-56.5 48,-75.5 104,-75.5 104,-56.5 48,-56.5"/>
<text text-anchor="middle" x="76" y="-63.5" font-family="FreeSans" font-size="10.00">OStream</text>
</a>
</g>
</g>
<!-- Node2 -->
<g id="node2" class="node">
<title>Node2</title>
<g id="a_node2"><a xlink:href="../../d5/dfa/classOFStream.html" target="_top" xlink:title=" ">
<polygon fill="white" stroke="black" points="0,-0.5 0,-19.5 62,-19.5 62,-0.5 0,-0.5"/>
<text text-anchor="middle" x="31" y="-7.5" font-family="FreeSans" font-size="10.00">OFStream</text>
</a>
</g>
</g>
<!-- Node1&#45;&gt;Node2 -->
<g id="edge1" class="edge">
<title>Node1&#45;&gt;Node2</title>
<path fill="none" stroke="midnightblue" d="M61.95,-48.14C54.11,-38.74 44.67,-27.4 38.29,-19.75"/>
<polygon fill="midnightblue" stroke="midnightblue" points="59.48,-50.64 68.57,-56.08 64.86,-46.16 59.48,-50.64"/>
</g>
<!-- Node3 -->
<g id="node3" class="node">
<title>Node3</title>
<g id="a_node3"><a xlink:href="../../d0/ddd/classOStringStream.html" target="_top" xlink:title=" ">
<polygon fill="white" stroke="black" points="80.5,-0.5 80.5,-19.5 161.5,-19.5 161.5,-0.5 80.5,-0.5"/>
<text text-anchor="middle" x="121" y="-7.5" font-family="FreeSans" font-size="10.00">OStringStream</text>
</a>
</g>
</g>
<!-- Node1&#45;&gt;Node3 -->
<g id="edge2" class="edge">
<title>Node1&#45;&gt;Node3</title>
<path fill="none" stroke="midnightblue" d="M90.05,-48.14C97.89,-38.74 107.33,-27.4 113.71,-19.75"/>
<polygon fill="midnightblue" stroke="midnightblue" points="87.14,-46.16 83.43,-56.08 92.52,-50.64 87.14,-46.16"/>
</g>
</g>
</svg>
