<?xml version="1.0" encoding="UTF-8" standalone="no"?>
<!DOCTYPE svg PUBLIC "-//W3C//DTD SVG 1.1//EN"
 "http://www.w3.org/Graphics/SVG/1.1/DTD/svg11.dtd">
<!-- Generated by graphviz version 2.43.0 (0)
 -->
<!-- Title: SedChange Pages: 1 -->
<svg width="542pt" height="140pt"
 viewBox="0.00 0.00 541.50 140.00" xmlns="http://www.w3.org/2000/svg" xmlns:xlink="http://www.w3.org/1999/xlink">
<g id="graph0" class="graph" transform="scale(1 1) rotate(0) translate(4 136)">
<title>SedChange</title>
<polygon fill="white" stroke="transparent" points="-4,4 -4,-136 537.5,-136 537.5,4 -4,4"/>
<!-- Node1 -->
<g id="node1" class="node">
<title>Node1</title>
<g id="a_node1"><a xlink:title=" ">
<polygon fill="#bfbfbf" stroke="black" points="222.5,-56.5 222.5,-75.5 289.5,-75.5 289.5,-56.5 222.5,-56.5"/>
<text text-anchor="middle" x="256" y="-63.5" font-family="FreeSans" font-size="10.00">SedChange</text>
</a>
</g>
</g>
<!-- Node3 -->
<g id="node3" class="node">
<title>Node3</title>
<g id="a_node3"><a xlink:href="../../de/d88/classSedAddXML.html" target="_top" xlink:title=" ">
<polygon fill="white" stroke="black" points="0,-0.5 0,-19.5 72,-19.5 72,-0.5 0,-0.5"/>
<text text-anchor="middle" x="36" y="-7.5" font-family="FreeSans" font-size="10.00">SedAddXML</text>
</a>
</g>
</g>
<!-- Node1&#45;&gt;Node3 -->
<g id="edge2" class="edge">
<title>Node1&#45;&gt;Node3</title>
<path fill="none" stroke="midnightblue" d="M212.26,-54.26C170.67,-44.05 108.94,-28.9 70.66,-19.51"/>
<polygon fill="midnightblue" stroke="midnightblue" points="211.56,-57.7 222.11,-56.68 213.23,-50.9 211.56,-57.7"/>
</g>
<!-- Node4 -->
<g id="node4" class="node">
<title>Node4</title>
<g id="a_node4"><a xlink:href="../../d6/d34/classSedChangeAttribute.html" target="_top" xlink:title=" ">
<polygon fill="white" stroke="black" points="90,-0.5 90,-19.5 194,-19.5 194,-0.5 90,-0.5"/>
<text text-anchor="middle" x="142" y="-7.5" font-family="FreeSans" font-size="10.00">SedChangeAttribute</text>
</a>
</g>
</g>
<!-- Node1&#45;&gt;Node4 -->
<g id="edge3" class="edge">
<title>Node1&#45;&gt;Node4</title>
<path fill="none" stroke="midnightblue" d="M228.76,-52.1C207.46,-42.01 178.46,-28.27 159.98,-19.52"/>
<polygon fill="midnightblue" stroke="midnightblue" points="227.4,-55.33 237.94,-56.44 230.4,-49 227.4,-55.33"/>
</g>
<!-- Node5 -->
<g id="node5" class="node">
<title>Node5</title>
<g id="a_node5"><a xlink:href="../../dd/d8b/classSedChangeXML.html" target="_top" xlink:title=" ">
<polygon fill="white" stroke="black" points="212,-0.5 212,-19.5 300,-19.5 300,-0.5 212,-0.5"/>
<text text-anchor="middle" x="256" y="-7.5" font-family="FreeSans" font-size="10.00">SedChangeXML</text>
</a>
</g>
</g>
<!-- Node1&#45;&gt;Node5 -->
<g id="edge4" class="edge">
<title>Node1&#45;&gt;Node5</title>
<path fill="none" stroke="midnightblue" d="M256,-45.8C256,-36.91 256,-26.78 256,-19.75"/>
<polygon fill="midnightblue" stroke="midnightblue" points="252.5,-46.08 256,-56.08 259.5,-46.08 252.5,-46.08"/>
</g>
<!-- Node6 -->
<g id="node6" class="node">
<title>Node6</title>
<g id="a_node6"><a xlink:href="../../d0/d01/classSedComputeChange.html" target="_top" xlink:title=" ">
<polygon fill="white" stroke="black" points="318,-0.5 318,-19.5 424,-19.5 424,-0.5 318,-0.5"/>
<text text-anchor="middle" x="371" y="-7.5" font-family="FreeSans" font-size="10.00">SedComputeChange</text>
</a>
</g>
</g>
<!-- Node1&#45;&gt;Node6 -->
<g id="edge5" class="edge">
<title>Node1&#45;&gt;Node6</title>
<path fill="none" stroke="midnightblue" d="M283.48,-52.1C304.97,-42.01 334.22,-28.27 352.86,-19.52"/>
<polygon fill="midnightblue" stroke="midnightblue" points="281.79,-49.02 274.22,-56.44 284.76,-55.36 281.79,-49.02"/>
</g>
<!-- Node7 -->
<g id="node7" class="node">
<title>Node7</title>
<g id="a_node7"><a xlink:href="../../d4/dc0/classSedRemoveXML.html" target="_top" xlink:title=" ">
<polygon fill="white" stroke="black" points="442.5,-0.5 442.5,-19.5 533.5,-19.5 533.5,-0.5 442.5,-0.5"/>
<text text-anchor="middle" x="488" y="-7.5" font-family="FreeSans" font-size="10.00">SedRemoveXML</text>
</a>
</g>
</g>
<!-- Node1&#45;&gt;Node7 -->
<g id="edge6" class="edge">
<title>Node1&#45;&gt;Node7</title>
<path fill="none" stroke="midnightblue" d="M299.52,-54.87C343.26,-44.69 409.95,-29.17 451.16,-19.58"/>
<polygon fill="midnightblue" stroke="midnightblue" points="298.68,-51.47 289.73,-57.15 300.27,-58.29 298.68,-51.47"/>
</g>
<!-- Node2 -->
<g id="node2" class="node">
<title>Node2</title>
<g id="a_node2"><a xlink:href="../../d9/dfe/classSedBase.html" target="_top" xlink:title=" ">
<polygon fill="white" stroke="black" points="228,-112.5 228,-131.5 284,-131.5 284,-112.5 228,-112.5"/>
<text text-anchor="middle" x="256" y="-119.5" font-family="FreeSans" font-size="10.00">SedBase</text>
</a>
</g>
</g>
<!-- Node2&#45;&gt;Node1 -->
<g id="edge1" class="edge">
<title>Node2&#45;&gt;Node1</title>
<path fill="none" stroke="midnightblue" d="M256,-101.8C256,-92.91 256,-82.78 256,-75.75"/>
<polygon fill="midnightblue" stroke="midnightblue" points="252.5,-102.08 256,-112.08 259.5,-102.08 252.5,-102.08"/>
</g>
</g>
</svg>
