<?xml version="1.0" encoding="UTF-8" standalone="no"?>
<!DOCTYPE svg PUBLIC "-//W3C//DTD SVG 1.1//EN"
 "http://www.w3.org/Graphics/SVG/1.1/DTD/svg11.dtd">
<!-- Generated by graphviz version 2.43.0 (0)
 -->
<!-- Title: SedAbstractTask Pages: 1 -->
<svg width="344pt" height="140pt"
 viewBox="0.00 0.00 344.00 140.00" xmlns="http://www.w3.org/2000/svg" xmlns:xlink="http://www.w3.org/1999/xlink">
<g id="graph0" class="graph" transform="scale(1 1) rotate(0) translate(4 136)">
<title>SedAbstractTask</title>
<polygon fill="white" stroke="transparent" points="-4,4 -4,-136 340,-136 340,4 -4,4"/>
<!-- Node1 -->
<g id="node1" class="node">
<title>Node1</title>
<g id="a_node1"><a xlink:title=" ">
<polygon fill="#bfbfbf" stroke="black" points="167,-56.5 167,-75.5 259,-75.5 259,-56.5 167,-56.5"/>
<text text-anchor="middle" x="213" y="-63.5" font-family="FreeSans" font-size="10.00">SedAbstractTask</text>
</a>
</g>
</g>
<!-- Node3 -->
<g id="node3" class="node">
<title>Node3</title>
<g id="a_node3"><a xlink:href="../../d4/dd9/classSedParameterEstimationTask.html" target="_top" xlink:title=" ">
<polygon fill="white" stroke="black" points="0,-0.5 0,-19.5 146,-19.5 146,-0.5 0,-0.5"/>
<text text-anchor="middle" x="73" y="-7.5" font-family="FreeSans" font-size="10.00">SedParameterEstimationTask</text>
</a>
</g>
</g>
<!-- Node1&#45;&gt;Node3 -->
<g id="edge2" class="edge">
<title>Node1&#45;&gt;Node3</title>
<path fill="none" stroke="midnightblue" d="M181.3,-52.77C155,-42.63 118.28,-28.47 95.08,-19.52"/>
<polygon fill="midnightblue" stroke="midnightblue" points="180.23,-56.11 190.82,-56.44 182.75,-49.58 180.23,-56.11"/>
</g>
<!-- Node4 -->
<g id="node4" class="node">
<title>Node4</title>
<g id="a_node4"><a xlink:href="../../de/d08/classSedRepeatedTask.html" target="_top" xlink:title=" ">
<polygon fill="white" stroke="black" points="164.5,-0.5 164.5,-19.5 261.5,-19.5 261.5,-0.5 164.5,-0.5"/>
<text text-anchor="middle" x="213" y="-7.5" font-family="FreeSans" font-size="10.00">SedRepeatedTask</text>
</a>
</g>
</g>
<!-- Node1&#45;&gt;Node4 -->
<g id="edge3" class="edge">
<title>Node1&#45;&gt;Node4</title>
<path fill="none" stroke="midnightblue" d="M213,-45.8C213,-36.91 213,-26.78 213,-19.75"/>
<polygon fill="midnightblue" stroke="midnightblue" points="209.5,-46.08 213,-56.08 216.5,-46.08 209.5,-46.08"/>
</g>
<!-- Node5 -->
<g id="node5" class="node">
<title>Node5</title>
<g id="a_node5"><a xlink:href="../../dc/d03/classSedTask.html" target="_top" xlink:title=" ">
<polygon fill="white" stroke="black" points="280,-0.5 280,-19.5 336,-19.5 336,-0.5 280,-0.5"/>
<text text-anchor="middle" x="308" y="-7.5" font-family="FreeSans" font-size="10.00">SedTask</text>
</a>
</g>
</g>
<!-- Node1&#45;&gt;Node5 -->
<g id="edge4" class="edge">
<title>Node1&#45;&gt;Node5</title>
<path fill="none" stroke="midnightblue" d="M237.32,-51.18C254.8,-41.24 277.83,-28.15 292.77,-19.65"/>
<polygon fill="midnightblue" stroke="midnightblue" points="235.23,-48.34 228.26,-56.32 238.69,-54.43 235.23,-48.34"/>
</g>
<!-- Node2 -->
<g id="node2" class="node">
<title>Node2</title>
<g id="a_node2"><a xlink:href="../../d9/dfe/classSedBase.html" target="_top" xlink:title=" ">
<polygon fill="white" stroke="black" points="185,-112.5 185,-131.5 241,-131.5 241,-112.5 185,-112.5"/>
<text text-anchor="middle" x="213" y="-119.5" font-family="FreeSans" font-size="10.00">SedBase</text>
</a>
</g>
</g>
<!-- Node2&#45;&gt;Node1 -->
<g id="edge1" class="edge">
<title>Node2&#45;&gt;Node1</title>
<path fill="none" stroke="midnightblue" d="M213,-101.8C213,-92.91 213,-82.78 213,-75.75"/>
<polygon fill="midnightblue" stroke="midnightblue" points="209.5,-102.08 213,-112.08 216.5,-102.08 209.5,-102.08"/>
</g>
</g>
</svg>
