<?xml version="1.0" encoding="UTF-8" standalone="no"?>
<!DOCTYPE svg PUBLIC "-//W3C//DTD SVG 1.1//EN"
 "http://www.w3.org/Graphics/SVG/1.1/DTD/svg11.dtd">
<!-- Generated by graphviz version 2.43.0 (0)
 -->
<!-- Title: SedSimulation Pages: 1 -->
<svg width="414pt" height="140pt"
 viewBox="0.00 0.00 414.00 140.00" xmlns="http://www.w3.org/2000/svg" xmlns:xlink="http://www.w3.org/1999/xlink">
<g id="graph0" class="graph" transform="scale(1 1) rotate(0) translate(4 136)">
<title>SedSimulation</title>
<polygon fill="white" stroke="transparent" points="-4,4 -4,-136 410,-136 410,4 -4,4"/>
<!-- Node1 -->
<g id="node1" class="node">
<title>Node1</title>
<g id="a_node1"><a xlink:title=" ">
<polygon fill="#bfbfbf" stroke="black" points="134.5,-56.5 134.5,-75.5 214.5,-75.5 214.5,-56.5 134.5,-56.5"/>
<text text-anchor="middle" x="174.5" y="-63.5" font-family="FreeSans" font-size="10.00">SedSimulation</text>
</a>
</g>
</g>
<!-- Node3 -->
<g id="node3" class="node">
<title>Node3</title>
<g id="a_node3"><a xlink:href="../../d8/dca/classSedAnalysis.html" target="_top" xlink:title=" ">
<polygon fill="white" stroke="black" points="0,-0.5 0,-19.5 71,-19.5 71,-0.5 0,-0.5"/>
<text text-anchor="middle" x="35.5" y="-7.5" font-family="FreeSans" font-size="10.00">SedAnalysis</text>
</a>
</g>
</g>
<!-- Node1&#45;&gt;Node3 -->
<g id="edge2" class="edge">
<title>Node1&#45;&gt;Node3</title>
<path fill="none" stroke="midnightblue" d="M143.02,-52.77C116.91,-42.63 80.46,-28.47 57.42,-19.52"/>
<polygon fill="midnightblue" stroke="midnightblue" points="141.89,-56.08 152.48,-56.44 144.42,-49.56 141.89,-56.08"/>
</g>
<!-- Node4 -->
<g id="node4" class="node">
<title>Node4</title>
<g id="a_node4"><a xlink:href="../../d8/df3/classSedOneStep.html" target="_top" xlink:title=" ">
<polygon fill="white" stroke="black" points="89.5,-0.5 89.5,-19.5 161.5,-19.5 161.5,-0.5 89.5,-0.5"/>
<text text-anchor="middle" x="125.5" y="-7.5" font-family="FreeSans" font-size="10.00">SedOneStep</text>
</a>
</g>
</g>
<!-- Node1&#45;&gt;Node4 -->
<g id="edge3" class="edge">
<title>Node1&#45;&gt;Node4</title>
<path fill="none" stroke="midnightblue" d="M159.47,-48.43C150.88,-38.97 140.46,-27.48 133.44,-19.75"/>
<polygon fill="midnightblue" stroke="midnightblue" points="157.1,-51.03 166.41,-56.08 162.28,-46.33 157.1,-51.03"/>
</g>
<!-- Node5 -->
<g id="node5" class="node">
<title>Node5</title>
<g id="a_node5"><a xlink:href="../../d4/dca/classSedSteadyState.html" target="_top" xlink:title=" ">
<polygon fill="white" stroke="black" points="180,-0.5 180,-19.5 267,-19.5 267,-0.5 180,-0.5"/>
<text text-anchor="middle" x="223.5" y="-7.5" font-family="FreeSans" font-size="10.00">SedSteadyState</text>
</a>
</g>
</g>
<!-- Node1&#45;&gt;Node5 -->
<g id="edge4" class="edge">
<title>Node1&#45;&gt;Node5</title>
<path fill="none" stroke="midnightblue" d="M189.53,-48.43C198.12,-38.97 208.54,-27.48 215.56,-19.75"/>
<polygon fill="midnightblue" stroke="midnightblue" points="186.72,-46.33 182.59,-56.08 191.9,-51.03 186.72,-46.33"/>
</g>
<!-- Node6 -->
<g id="node6" class="node">
<title>Node6</title>
<g id="a_node6"><a xlink:href="../../d2/df1/classSedUniformTimeCourse.html" target="_top" xlink:title=" ">
<polygon fill="white" stroke="black" points="285,-0.5 285,-19.5 406,-19.5 406,-0.5 285,-0.5"/>
<text text-anchor="middle" x="345.5" y="-7.5" font-family="FreeSans" font-size="10.00">SedUniformTimeCourse</text>
</a>
</g>
</g>
<!-- Node1&#45;&gt;Node6 -->
<g id="edge5" class="edge">
<title>Node1&#45;&gt;Node6</title>
<path fill="none" stroke="midnightblue" d="M211.54,-53.3C243.76,-43.13 289.69,-28.62 318.53,-19.52"/>
<polygon fill="midnightblue" stroke="midnightblue" points="210.08,-50.09 201.6,-56.44 212.19,-56.77 210.08,-50.09"/>
</g>
<!-- Node2 -->
<g id="node2" class="node">
<title>Node2</title>
<g id="a_node2"><a xlink:href="../../d9/dfe/classSedBase.html" target="_top" xlink:title=" ">
<polygon fill="white" stroke="black" points="146.5,-112.5 146.5,-131.5 202.5,-131.5 202.5,-112.5 146.5,-112.5"/>
<text text-anchor="middle" x="174.5" y="-119.5" font-family="FreeSans" font-size="10.00">SedBase</text>
</a>
</g>
</g>
<!-- Node2&#45;&gt;Node1 -->
<g id="edge1" class="edge">
<title>Node2&#45;&gt;Node1</title>
<path fill="none" stroke="midnightblue" d="M174.5,-101.8C174.5,-92.91 174.5,-82.78 174.5,-75.75"/>
<polygon fill="midnightblue" stroke="midnightblue" points="171,-102.08 174.5,-112.08 178,-102.08 171,-102.08"/>
</g>
</g>
</svg>
