<?xml version="1.0" encoding="UTF-8" standalone="no"?>
<!DOCTYPE svg PUBLIC "-//W3C//DTD SVG 1.1//EN"
 "http://www.w3.org/Graphics/SVG/1.1/DTD/svg11.dtd">
<!-- Generated by graphviz version 2.43.0 (0)
 -->
<!-- Title: sedml Pages: 1 -->
<svg width="110pt" height="183pt"
 viewBox="0.00 0.00 110.00 183.00" xmlns="http://www.w3.org/2000/svg" xmlns:xlink="http://www.w3.org/1999/xlink">
<g id="graph0" class="graph" transform="scale(1 1) rotate(0) translate(4 179)">
<title>sedml</title>
<polygon fill="white" stroke="transparent" points="-4,4 -4,-179 106,-179 106,4 -4,4"/>
<g id="clust1" class="cluster">
<title>clusterdir_68267d1309a1af8e8297ef4c3efbcdba</title>
<g id="a_clust1"><a xlink:href="dir_68267d1309a1af8e8297ef4c3efbcdba.html" target="_top" xlink:title="src">
<polygon fill="#ddddee" stroke="black" points="8,-8 8,-167 94,-167 94,-8 8,-8"/>
<text text-anchor="middle" x="51" y="-155" font-family="FreeSans" font-size="10.00">src</text>
</a>
</g>
</g>
<g id="clust2" class="cluster">
<title>clusterdir_e8e8c839936f359a815513eaae4ee9c5</title>
<g id="a_clust2"><a xlink:href="dir_e8e8c839936f359a815513eaae4ee9c5.html" target="_top">
<polygon fill="#eeeeff" stroke="black" points="16,-16 16,-140 86,-140 86,-16 16,-16"/>
</a>
</g>
</g>
<!-- dir_e8e8c839936f359a815513eaae4ee9c5 -->
<g id="node1" class="node">
<title>dir_e8e8c839936f359a815513eaae4ee9c5</title>
<text text-anchor="middle" x="51" y="-111.5" font-family="FreeSans" font-size="10.00">sedml</text>
</g>
<!-- dir_85ca3f07d8551687fb8b4a72e05bf409 -->
<g id="node2" class="node">
<title>dir_85ca3f07d8551687fb8b4a72e05bf409</title>
<g id="a_node2"><a xlink:href="dir_85ca3f07d8551687fb8b4a72e05bf409.html" target="_top" xlink:title="common">
<polygon fill="white" stroke="black" points="78,-60 24,-60 24,-24 78,-24 78,-60"/>
<text text-anchor="middle" x="51" y="-39.5" font-family="FreeSans" font-size="10.00">common</text>
</a>
</g>
</g>
<!-- dir_e8e8c839936f359a815513eaae4ee9c5&#45;&gt;dir_85ca3f07d8551687fb8b4a72e05bf409 -->
<g id="edge1" class="edge">
<title>dir_e8e8c839936f359a815513eaae4ee9c5&#45;&gt;dir_85ca3f07d8551687fb8b4a72e05bf409</title>
<path fill="none" stroke="black" d="M51,-95.7C51,-87.98 51,-78.71 51,-70.11"/>
<polygon fill="black" stroke="black" points="54.5,-70.1 51,-60.1 47.5,-70.1 54.5,-70.1"/>
<g id="a_edge1&#45;headlabel"><a xlink:href="dir_000001_000002.html" target="_top" xlink:title="198">
<text text-anchor="middle" x="57.34" y="-71.2" font-family="FreeSans" font-size="10.00">198</text>
</a>
</g>
</g>
</g>
</svg>
