<?xml version="1.0" encoding="UTF-8" standalone="no"?>
<!DOCTYPE svg PUBLIC "-//W3C//DTD SVG 1.1//EN"
 "http://www.w3.org/Graphics/SVG/1.1/DTD/svg11.dtd">
<!-- Generated by graphviz version 2.43.0 (0)
 -->
<!-- Title: bindings Pages: 1 -->
<svg width="542pt" height="175pt"
 viewBox="0.00 0.00 542.00 175.00" xmlns="http://www.w3.org/2000/svg" xmlns:xlink="http://www.w3.org/1999/xlink">
<g id="graph0" class="graph" transform="scale(1 1) rotate(0) translate(4 171)">
<title>bindings</title>
<polygon fill="white" stroke="transparent" points="-4,4 -4,-171 538,-171 538,4 -4,4"/>
<g id="clust1" class="cluster">
<title>clusterdir_68267d1309a1af8e8297ef4c3efbcdba</title>
<g id="a_clust1"><a xlink:href="dir_68267d1309a1af8e8297ef4c3efbcdba.html" target="_top" xlink:title="src">
<polygon fill="#ddddee" stroke="black" points="8,-8 8,-159 526,-159 526,-8 8,-8"/>
<text text-anchor="middle" x="267" y="-147" font-family="FreeSans" font-size="10.00">src</text>
</a>
</g>
</g>
<g id="clust2" class="cluster">
<title>clusterdir_ea91a2a72b7cbbf988d2bd2cd1d23e49</title>
<g id="a_clust2"><a xlink:href="dir_ea91a2a72b7cbbf988d2bd2cd1d23e49.html" target="_top">
<polygon fill="#eeeeff" stroke="black" points="16,-80 16,-132 518,-132 518,-80 16,-80"/>
</a>
</g>
</g>
<!-- dir_e8e8c839936f359a815513eaae4ee9c5 -->
<g id="node1" class="node">
<title>dir_e8e8c839936f359a815513eaae4ee9c5</title>
<g id="a_node1"><a xlink:href="dir_e8e8c839936f359a815513eaae4ee9c5.html" target="_top" xlink:title="sedml">
<polygon fill="white" stroke="red" points="186,-52 132,-52 132,-16 186,-16 186,-52"/>
<text text-anchor="middle" x="159" y="-31.5" font-family="FreeSans" font-size="10.00">sedml</text>
</a>
</g>
</g>
<!-- dir_ea91a2a72b7cbbf988d2bd2cd1d23e49 -->
<g id="node2" class="node">
<title>dir_ea91a2a72b7cbbf988d2bd2cd1d23e49</title>
<text text-anchor="middle" x="483" y="-103.5" font-family="FreeSans" font-size="10.00">bindings</text>
</g>
<!-- dir_82e50a89e7cd39f1298b32036d439905 -->
<g id="node3" class="node">
<title>dir_82e50a89e7cd39f1298b32036d439905</title>
<g id="a_node3"><a xlink:href="dir_82e50a89e7cd39f1298b32036d439905.html" target="_top" xlink:title="csharp">
<polygon fill="white" stroke="black" points="438,-124 384,-124 384,-88 438,-88 438,-124"/>
<text text-anchor="middle" x="411" y="-103.5" font-family="FreeSans" font-size="10.00">csharp</text>
</a>
</g>
</g>
<!-- dir_c4b577fda60cfc95e25b9bf62d4459b5 -->
<g id="node4" class="node">
<title>dir_c4b577fda60cfc95e25b9bf62d4459b5</title>
<g id="a_node4"><a xlink:href="dir_c4b577fda60cfc95e25b9bf62d4459b5.html" target="_top" xlink:title="java">
<polygon fill="white" stroke="black" points="366,-124 312,-124 312,-88 366,-88 366,-124"/>
<text text-anchor="middle" x="339" y="-103.5" font-family="FreeSans" font-size="10.00">java</text>
</a>
</g>
</g>
<!-- dir_847ac4355242fd890601fae41e07b5cd -->
<g id="node5" class="node">
<title>dir_847ac4355242fd890601fae41e07b5cd</title>
<g id="a_node5"><a xlink:href="dir_847ac4355242fd890601fae41e07b5cd.html" target="_top" xlink:title="perl">
<polygon fill="white" stroke="black" points="294,-124 240,-124 240,-88 294,-88 294,-124"/>
<text text-anchor="middle" x="267" y="-103.5" font-family="FreeSans" font-size="10.00">perl</text>
</a>
</g>
</g>
<!-- dir_847ac4355242fd890601fae41e07b5cd&#45;&gt;dir_e8e8c839936f359a815513eaae4ee9c5 -->
<g id="edge4" class="edge">
<title>dir_847ac4355242fd890601fae41e07b5cd&#45;&gt;dir_e8e8c839936f359a815513eaae4ee9c5</title>
<path fill="none" stroke="black" d="M242.71,-87.89C238.81,-85.22 234.81,-82.51 231,-80 219.33,-72.31 206.43,-64.14 194.8,-56.9"/>
<polygon fill="black" stroke="black" points="196.55,-53.87 186.21,-51.57 192.86,-59.82 196.55,-53.87"/>
<g id="a_edge4&#45;headlabel"><a xlink:href="dir_000007_000001.html" target="_top" xlink:title="1">
<text text-anchor="middle" x="201.1" y="-50.85" font-family="FreeSans" font-size="10.00">1</text>
</a>
</g>
</g>
<!-- dir_1c7602968eb74db5d15e2c7169dcedee -->
<g id="node6" class="node">
<title>dir_1c7602968eb74db5d15e2c7169dcedee</title>
<g id="a_node6"><a xlink:href="dir_1c7602968eb74db5d15e2c7169dcedee.html" target="_top" xlink:title="python">
<polygon fill="white" stroke="black" points="222,-124 168,-124 168,-88 222,-88 222,-124"/>
<text text-anchor="middle" x="195" y="-103.5" font-family="FreeSans" font-size="10.00">python</text>
</a>
</g>
</g>
<!-- dir_1c7602968eb74db5d15e2c7169dcedee&#45;&gt;dir_e8e8c839936f359a815513eaae4ee9c5 -->
<g id="edge2" class="edge">
<title>dir_1c7602968eb74db5d15e2c7169dcedee&#45;&gt;dir_e8e8c839936f359a815513eaae4ee9c5</title>
<path fill="none" stroke="black" d="M186.1,-87.7C182,-79.73 177.05,-70.1 172.51,-61.26"/>
<polygon fill="black" stroke="black" points="175.48,-59.4 167.8,-52.1 169.26,-62.6 175.48,-59.4"/>
<g id="a_edge2&#45;headlabel"><a xlink:href="dir_000008_000001.html" target="_top" xlink:title="1">
<text text-anchor="middle" x="179.65" y="-58.79" font-family="FreeSans" font-size="10.00">1</text>
</a>
</g>
</g>
<!-- dir_5dd3350f8cb4754743ed7f2081ee6927 -->
<g id="node7" class="node">
<title>dir_5dd3350f8cb4754743ed7f2081ee6927</title>
<g id="a_node7"><a xlink:href="dir_5dd3350f8cb4754743ed7f2081ee6927.html" target="_top" xlink:title="ruby">
<polygon fill="white" stroke="black" points="150,-124 96,-124 96,-88 150,-88 150,-124"/>
<text text-anchor="middle" x="123" y="-103.5" font-family="FreeSans" font-size="10.00">ruby</text>
</a>
</g>
</g>
<!-- dir_5dd3350f8cb4754743ed7f2081ee6927&#45;&gt;dir_e8e8c839936f359a815513eaae4ee9c5 -->
<g id="edge1" class="edge">
<title>dir_5dd3350f8cb4754743ed7f2081ee6927&#45;&gt;dir_e8e8c839936f359a815513eaae4ee9c5</title>
<path fill="none" stroke="black" d="M131.9,-87.7C136,-79.73 140.95,-70.1 145.49,-61.26"/>
<polygon fill="black" stroke="black" points="148.74,-62.6 150.2,-52.1 142.52,-59.4 148.74,-62.6"/>
<g id="a_edge1&#45;headlabel"><a xlink:href="dir_000009_000001.html" target="_top" xlink:title="1">
<text text-anchor="middle" x="149.62" y="-64.59" font-family="FreeSans" font-size="10.00">1</text>
</a>
</g>
</g>
<!-- dir_4608c12f0530d7578e2537f96972d9d5 -->
<g id="node8" class="node">
<title>dir_4608c12f0530d7578e2537f96972d9d5</title>
<g id="a_node8"><a xlink:href="dir_4608c12f0530d7578e2537f96972d9d5.html" target="_top" xlink:title="swig">
<polygon fill="white" stroke="black" points="78,-124 24,-124 24,-88 78,-88 78,-124"/>
<text text-anchor="middle" x="51" y="-103.5" font-family="FreeSans" font-size="10.00">swig</text>
</a>
</g>
</g>
<!-- dir_4608c12f0530d7578e2537f96972d9d5&#45;&gt;dir_e8e8c839936f359a815513eaae4ee9c5 -->
<g id="edge3" class="edge">
<title>dir_4608c12f0530d7578e2537f96972d9d5&#45;&gt;dir_e8e8c839936f359a815513eaae4ee9c5</title>
<path fill="none" stroke="black" d="M75.29,-87.89C79.19,-85.22 83.19,-82.51 87,-80 98.67,-72.31 111.57,-64.14 123.2,-56.9"/>
<polygon fill="black" stroke="black" points="125.14,-59.82 131.79,-51.57 121.45,-53.87 125.14,-59.82"/>
<g id="a_edge3&#45;headlabel"><a xlink:href="dir_000004_000001.html" target="_top" xlink:title="4">
<text text-anchor="middle" x="123.58" y="-61.63" font-family="FreeSans" font-size="10.00">4</text>
</a>
</g>
</g>
</g>
</svg>
