<?xml version="1.0" encoding="UTF-8" standalone="no"?>
<!DOCTYPE svg PUBLIC "-//W3C//DTD SVG 1.1//EN"
 "http://www.w3.org/Graphics/SVG/1.1/DTD/svg11.dtd">
<!-- Generated by graphviz version 2.43.0 (0)
 -->
<!-- Title: Graphical Class Hierarchy Pages: 1 -->
<svg width="506pt" height="28pt"
 viewBox="0.00 0.00 506.00 28.00" xmlns="http://www.w3.org/2000/svg" xmlns:xlink="http://www.w3.org/1999/xlink">
<g id="graph0" class="graph" transform="scale(1 1) rotate(0) translate(4 24)">
<title>Graphical Class Hierarchy</title>
<polygon fill="white" stroke="transparent" points="-4,4 -4,-24 502,-24 502,4 -4,4"/>
<!-- Node14 -->
<g id="node1" class="node">
<title>Node14</title>
<g id="a_node1"><a xlink:title=" ">
<polygon fill="white" stroke="#bfbfbf" points="0,-0.5 0,-19.5 76,-19.5 76,-0.5 0,-0.5"/>
<text text-anchor="middle" x="38" y="-7.5" font-family="FreeSans" font-size="10.00">std::exception</text>
</a>
</g>
</g>
<!-- Node15 -->
<g id="node2" class="node">
<title>Node15</title>
<g id="a_node2"><a xlink:title=" ">
<polygon fill="white" stroke="#bfbfbf" points="112,-0.5 112,-19.5 192,-19.5 192,-0.5 112,-0.5"/>
<text text-anchor="middle" x="152" y="-7.5" font-family="FreeSans" font-size="10.00">std::logic_error</text>
</a>
</g>
</g>
<!-- Node14&#45;&gt;Node15 -->
<g id="edge1" class="edge">
<title>Node14&#45;&gt;Node15</title>
<path fill="none" stroke="midnightblue" d="M86.47,-10C94.96,-10 103.73,-10 111.95,-10"/>
<polygon fill="midnightblue" stroke="midnightblue" points="86.29,-6.5 76.29,-10 86.29,-13.5 86.29,-6.5"/>
</g>
<!-- Node16 -->
<g id="node3" class="node">
<title>Node16</title>
<g id="a_node3"><a xlink:title=" ">
<polygon fill="white" stroke="#bfbfbf" points="228,-0.5 228,-19.5 336,-19.5 336,-0.5 228,-0.5"/>
<text text-anchor="middle" x="282" y="-7.5" font-family="FreeSans" font-size="10.00">std::invalid_argument</text>
</a>
</g>
</g>
<!-- Node15&#45;&gt;Node16 -->
<g id="edge2" class="edge">
<title>Node15&#45;&gt;Node16</title>
<path fill="none" stroke="midnightblue" d="M202.18,-10C210.64,-10 219.45,-10 228,-10"/>
<polygon fill="midnightblue" stroke="midnightblue" points="202.1,-6.5 192.1,-10 202.1,-13.5 202.1,-6.5"/>
</g>
<!-- Node0 -->
<g id="node4" class="node">
<title>Node0</title>
<g id="a_node4"><a xlink:href="d9/d01/classSedConstructorException.html" target="_top" xlink:title=" ">
<polygon fill="white" stroke="black" points="372,-0.5 372,-19.5 498,-19.5 498,-0.5 372,-0.5"/>
<text text-anchor="middle" x="435" y="-7.5" font-family="FreeSans" font-size="10.00">SedConstructorException</text>
</a>
</g>
</g>
<!-- Node16&#45;&gt;Node0 -->
<g id="edge3" class="edge">
<title>Node16&#45;&gt;Node0</title>
<path fill="none" stroke="midnightblue" d="M346.41,-10C354.86,-10 363.52,-10 371.95,-10"/>
<polygon fill="midnightblue" stroke="midnightblue" points="346.24,-6.5 336.24,-10 346.24,-13.5 346.24,-6.5"/>
</g>
</g>
</svg>
