<?xml version="1.0" encoding="UTF-8" standalone="no"?>
<!DOCTYPE svg PUBLIC "-//W3C//DTD SVG 1.1//EN"
 "http://www.w3.org/Graphics/SVG/1.1/DTD/svg11.dtd">
<!-- Generated by graphviz version 2.43.0 (0)
 -->
<!-- Title: SedSteadyState Pages: 1 -->
<svg width="95pt" height="140pt"
 viewBox="0.00 0.00 95.00 140.00" xmlns="http://www.w3.org/2000/svg" xmlns:xlink="http://www.w3.org/1999/xlink">
<g id="graph0" class="graph" transform="scale(1 1) rotate(0) translate(4 136)">
<title>SedSteadyState</title>
<polygon fill="white" stroke="transparent" points="-4,4 -4,-136 91,-136 91,4 -4,4"/>
<!-- Node1 -->
<g id="node1" class="node">
<title>Node1</title>
<g id="a_node1"><a xlink:title=" ">
<polygon fill="#bfbfbf" stroke="black" points="0,-0.5 0,-19.5 87,-19.5 87,-0.5 0,-0.5"/>
<text text-anchor="middle" x="43.5" y="-7.5" font-family="FreeSans" font-size="10.00">SedSteadyState</text>
</a>
</g>
</g>
<!-- Node2 -->
<g id="node2" class="node">
<title>Node2</title>
<g id="a_node2"><a xlink:href="../../d4/dce/classSedSimulation.html" target="_top" xlink:title=" ">
<polygon fill="white" stroke="black" points="3.5,-56.5 3.5,-75.5 83.5,-75.5 83.5,-56.5 3.5,-56.5"/>
<text text-anchor="middle" x="43.5" y="-63.5" font-family="FreeSans" font-size="10.00">SedSimulation</text>
</a>
</g>
</g>
<!-- Node2&#45;&gt;Node1 -->
<g id="edge1" class="edge">
<title>Node2&#45;&gt;Node1</title>
<path fill="none" stroke="midnightblue" d="M43.5,-45.8C43.5,-36.91 43.5,-26.78 43.5,-19.75"/>
<polygon fill="midnightblue" stroke="midnightblue" points="40,-46.08 43.5,-56.08 47,-46.08 40,-46.08"/>
</g>
<!-- Node3 -->
<g id="node3" class="node">
<title>Node3</title>
<g id="a_node3"><a xlink:href="../../d9/dfe/classSedBase.html" target="_top" xlink:title=" ">
<polygon fill="white" stroke="black" points="15.5,-112.5 15.5,-131.5 71.5,-131.5 71.5,-112.5 15.5,-112.5"/>
<text text-anchor="middle" x="43.5" y="-119.5" font-family="FreeSans" font-size="10.00">SedBase</text>
</a>
</g>
</g>
<!-- Node3&#45;&gt;Node2 -->
<g id="edge2" class="edge">
<title>Node3&#45;&gt;Node2</title>
<path fill="none" stroke="midnightblue" d="M43.5,-101.8C43.5,-92.91 43.5,-82.78 43.5,-75.75"/>
<polygon fill="midnightblue" stroke="midnightblue" points="40,-102.08 43.5,-112.08 47,-102.08 40,-102.08"/>
</g>
</g>
</svg>
