<?xml version="1.0" encoding="UTF-8" standalone="no"?>
<!DOCTYPE svg PUBLIC "-//W3C//DTD SVG 1.1//EN"
 "http://www.w3.org/Graphics/SVG/1.1/DTD/svg11.dtd">
<!-- Generated by graphviz version 2.43.0 (0)
 -->
<!-- Title: SedBase Pages: 1 -->
<svg width="419pt" height="1339pt"
 viewBox="0.00 0.00 419.00 1339.00" xmlns="http://www.w3.org/2000/svg" xmlns:xlink="http://www.w3.org/1999/xlink">
<g id="graph0" class="graph" transform="scale(1 1) rotate(0) translate(4 1335)">
<title>SedBase</title>
<polygon fill="white" stroke="transparent" points="-4,4 -4,-1335 415,-1335 415,4 -4,4"/>
<!-- Node1 -->
<g id="node1" class="node">
<title>Node1</title>
<g id="a_node1"><a xlink:title=" ">
<polygon fill="#bfbfbf" stroke="black" points="0,-627.5 0,-646.5 56,-646.5 56,-627.5 0,-627.5"/>
<text text-anchor="middle" x="28" y="-634.5" font-family="FreeSans" font-size="10.00">SedBase</text>
</a>
</g>
</g>
<!-- Node2 -->
<g id="node2" class="node">
<title>Node2</title>
<g id="a_node2"><a xlink:href="../../df/dcf/classSedAbstractCurve.html" target="_top" xlink:title=" ">
<polygon fill="white" stroke="black" points="107,-1273.5 107,-1292.5 203,-1292.5 203,-1273.5 107,-1273.5"/>
<text text-anchor="middle" x="155" y="-1280.5" font-family="FreeSans" font-size="10.00">SedAbstractCurve</text>
</a>
</g>
</g>
<!-- Node1&#45;&gt;Node2 -->
<g id="edge1" class="edge">
<title>Node1&#45;&gt;Node2</title>
<path fill="none" stroke="midnightblue" d="M28.75,-657.01C27.92,-750.48 28.34,-1143.93 92,-1245 100.21,-1258.03 114.67,-1267.27 127.57,-1273.38"/>
<polygon fill="midnightblue" stroke="midnightblue" points="32.25,-656.95 28.86,-646.92 25.25,-656.88 32.25,-656.95"/>
</g>
<!-- Node5 -->
<g id="node5" class="node">
<title>Node5</title>
<g id="a_node5"><a xlink:href="../../dc/d6f/classSedAbstractTask.html" target="_top" xlink:title=" ">
<polygon fill="white" stroke="black" points="109,-1216.5 109,-1235.5 201,-1235.5 201,-1216.5 109,-1216.5"/>
<text text-anchor="middle" x="155" y="-1223.5" font-family="FreeSans" font-size="10.00">SedAbstractTask</text>
</a>
</g>
</g>
<!-- Node1&#45;&gt;Node5 -->
<g id="edge4" class="edge">
<title>Node1&#45;&gt;Node5</title>
<path fill="none" stroke="midnightblue" d="M29.91,-656.77C34.48,-752.36 56.11,-1163.67 92,-1207 96.45,-1212.38 102.38,-1216.26 108.82,-1219.06"/>
<polygon fill="midnightblue" stroke="midnightblue" points="33.39,-656.34 29.43,-646.51 26.4,-656.66 33.39,-656.34"/>
</g>
<!-- Node9 -->
<g id="node9" class="node">
<title>Node9</title>
<g id="a_node9"><a xlink:href="../../db/dc0/classSedAdjustableParameter.html" target="_top" xlink:title=" ">
<polygon fill="white" stroke="black" points="92.5,-1178.5 92.5,-1197.5 217.5,-1197.5 217.5,-1178.5 92.5,-1178.5"/>
<text text-anchor="middle" x="155" y="-1185.5" font-family="FreeSans" font-size="10.00">SedAdjustableParameter</text>
</a>
</g>
</g>
<!-- Node1&#45;&gt;Node9 -->
<g id="edge8" class="edge">
<title>Node1&#45;&gt;Node9</title>
<path fill="none" stroke="midnightblue" d="M28.57,-656.73C27.07,-743.35 25.4,-1089.23 92,-1169 95.25,-1172.89 99.27,-1176 103.69,-1178.48"/>
<polygon fill="midnightblue" stroke="midnightblue" points="32.07,-656.74 28.76,-646.67 25.07,-656.6 32.07,-656.74"/>
</g>
<!-- Node10 -->
<g id="node10" class="node">
<title>Node10</title>
<g id="a_node10"><a xlink:href="../../d8/d29/classSedAlgorithm.html" target="_top" xlink:title=" ">
<polygon fill="white" stroke="black" points="117.5,-1140.5 117.5,-1159.5 192.5,-1159.5 192.5,-1140.5 117.5,-1140.5"/>
<text text-anchor="middle" x="155" y="-1147.5" font-family="FreeSans" font-size="10.00">SedAlgorithm</text>
</a>
</g>
</g>
<!-- Node1&#45;&gt;Node10 -->
<g id="edge9" class="edge">
<title>Node1&#45;&gt;Node10</title>
<path fill="none" stroke="midnightblue" d="M28.77,-656.88C28.2,-739.85 30.15,-1057.59 92,-1131 98.38,-1138.58 107.7,-1143.19 117.19,-1145.98"/>
<polygon fill="midnightblue" stroke="midnightblue" points="32.27,-656.81 28.86,-646.78 25.27,-656.75 32.27,-656.81"/>
</g>
<!-- Node11 -->
<g id="node11" class="node">
<title>Node11</title>
<g id="a_node11"><a xlink:href="../../db/d3a/classSedAlgorithmParameter.html" target="_top" xlink:title=" ">
<polygon fill="white" stroke="black" points="95,-1102.5 95,-1121.5 215,-1121.5 215,-1102.5 95,-1102.5"/>
<text text-anchor="middle" x="155" y="-1109.5" font-family="FreeSans" font-size="10.00">SedAlgorithmParameter</text>
</a>
</g>
</g>
<!-- Node1&#45;&gt;Node11 -->
<g id="edge10" class="edge">
<title>Node1&#45;&gt;Node11</title>
<path fill="none" stroke="midnightblue" d="M29,-656.84C29.41,-735.7 34.84,-1025.87 92,-1093 95.28,-1096.86 99.33,-1099.95 103.77,-1102.42"/>
<polygon fill="midnightblue" stroke="midnightblue" points="32.5,-656.78 28.97,-646.79 25.5,-656.81 32.5,-656.78"/>
</g>
<!-- Node12 -->
<g id="node12" class="node">
<title>Node12</title>
<g id="a_node12"><a xlink:href="../../db/dc8/classSedAppliedDimension.html" target="_top" xlink:title=" ">
<polygon fill="white" stroke="black" points="99,-1064.5 99,-1083.5 211,-1083.5 211,-1064.5 99,-1064.5"/>
<text text-anchor="middle" x="155" y="-1071.5" font-family="FreeSans" font-size="10.00">SedAppliedDimension</text>
</a>
</g>
</g>
<!-- Node1&#45;&gt;Node12 -->
<g id="edge11" class="edge">
<title>Node1&#45;&gt;Node12</title>
<path fill="none" stroke="midnightblue" d="M29.28,-657.07C30.74,-731.99 39.58,-994.19 92,-1055 95.31,-1058.84 99.37,-1061.91 103.82,-1064.37"/>
<polygon fill="midnightblue" stroke="midnightblue" points="32.78,-656.65 29.11,-646.71 25.78,-656.77 32.78,-656.65"/>
</g>
<!-- Node13 -->
<g id="node13" class="node">
<title>Node13</title>
<g id="a_node13"><a xlink:href="../../da/dbd/classSedAxis.html" target="_top" xlink:title=" ">
<polygon fill="white" stroke="black" points="128.5,-1026.5 128.5,-1045.5 181.5,-1045.5 181.5,-1026.5 128.5,-1026.5"/>
<text text-anchor="middle" x="155" y="-1033.5" font-family="FreeSans" font-size="10.00">SedAxis</text>
</a>
</g>
</g>
<!-- Node1&#45;&gt;Node13 -->
<g id="edge12" class="edge">
<title>Node1&#45;&gt;Node13</title>
<path fill="none" stroke="midnightblue" d="M29.6,-656.58C32.13,-726.46 44.13,-962.3 92,-1017 101.04,-1027.34 115.55,-1032.14 128.26,-1034.33"/>
<polygon fill="midnightblue" stroke="midnightblue" points="33.1,-656.39 29.26,-646.52 26.1,-656.63 33.1,-656.39"/>
</g>
<!-- Node14 -->
<g id="node14" class="node">
<title>Node14</title>
<g id="a_node14"><a xlink:href="../../d2/d5d/classSedBounds.html" target="_top" xlink:title=" ">
<polygon fill="white" stroke="black" points="121.5,-988.5 121.5,-1007.5 188.5,-1007.5 188.5,-988.5 121.5,-988.5"/>
<text text-anchor="middle" x="155" y="-995.5" font-family="FreeSans" font-size="10.00">SedBounds</text>
</a>
</g>
</g>
<!-- Node1&#45;&gt;Node14 -->
<g id="edge13" class="edge">
<title>Node1&#45;&gt;Node14</title>
<path fill="none" stroke="midnightblue" d="M30,-656.7C33.72,-722.09 48.81,-930.52 92,-979 99.49,-987.41 110.59,-992.14 121.33,-994.8"/>
<polygon fill="midnightblue" stroke="midnightblue" points="33.49,-656.33 29.45,-646.53 26.5,-656.71 33.49,-656.33"/>
</g>
<!-- Node15 -->
<g id="node15" class="node">
<title>Node15</title>
<g id="a_node15"><a xlink:href="../../de/d17/classSedChange.html" target="_top" xlink:title=" ">
<polygon fill="white" stroke="black" points="121.5,-950.5 121.5,-969.5 188.5,-969.5 188.5,-950.5 121.5,-950.5"/>
<text text-anchor="middle" x="155" y="-957.5" font-family="FreeSans" font-size="10.00">SedChange</text>
</a>
</g>
</g>
<!-- Node1&#45;&gt;Node15 -->
<g id="edge14" class="edge">
<title>Node1&#45;&gt;Node15</title>
<path fill="none" stroke="midnightblue" d="M30.51,-656.84C35.52,-717.46 53.47,-898.7 92,-941 99.58,-949.32 110.7,-954.04 121.44,-956.7"/>
<polygon fill="midnightblue" stroke="midnightblue" points="33.99,-656.38 29.7,-646.69 27.01,-656.94 33.99,-656.38"/>
</g>
<!-- Node21 -->
<g id="node21" class="node">
<title>Node21</title>
<g id="a_node21"><a xlink:href="../../db/d2f/classSedDataDescription.html" target="_top" xlink:title=" ">
<polygon fill="white" stroke="black" points="103.5,-912.5 103.5,-931.5 206.5,-931.5 206.5,-912.5 103.5,-912.5"/>
<text text-anchor="middle" x="155" y="-919.5" font-family="FreeSans" font-size="10.00">SedDataDescription</text>
</a>
</g>
</g>
<!-- Node1&#45;&gt;Node21 -->
<g id="edge20" class="edge">
<title>Node1&#45;&gt;Node21</title>
<path fill="none" stroke="midnightblue" d="M31.15,-656.85C37.53,-712.23 58.07,-866.79 92,-903 95.62,-906.86 100,-909.94 104.74,-912.41"/>
<polygon fill="midnightblue" stroke="midnightblue" points="34.6,-656.16 30,-646.61 27.64,-656.94 34.6,-656.16"/>
</g>
<!-- Node22 -->
<g id="node22" class="node">
<title>Node22</title>
<g id="a_node22"><a xlink:href="../../d0/dfa/classSedDataGenerator.html" target="_top" xlink:title=" ">
<polygon fill="white" stroke="black" points="106.5,-874.5 106.5,-893.5 203.5,-893.5 203.5,-874.5 106.5,-874.5"/>
<text text-anchor="middle" x="155" y="-881.5" font-family="FreeSans" font-size="10.00">SedDataGenerator</text>
</a>
</g>
</g>
<!-- Node1&#45;&gt;Node22 -->
<g id="edge21" class="edge">
<title>Node1&#45;&gt;Node22</title>
<path fill="none" stroke="midnightblue" d="M28.5,-657.03C28.55,-700.93 34.96,-806.36 92,-865 96.08,-869.2 101.06,-872.47 106.41,-875.03"/>
<polygon fill="midnightblue" stroke="midnightblue" points="32.01,-656.85 28.61,-646.81 25.01,-656.78 32.01,-656.85"/>
</g>
<!-- Node23 -->
<g id="node23" class="node">
<title>Node23</title>
<g id="a_node23"><a xlink:href="../../d9/d44/classSedDataSet.html" target="_top" xlink:title=" ">
<polygon fill="white" stroke="black" points="120.5,-836.5 120.5,-855.5 189.5,-855.5 189.5,-836.5 120.5,-836.5"/>
<text text-anchor="middle" x="155" y="-843.5" font-family="FreeSans" font-size="10.00">SedDataSet</text>
</a>
</g>
</g>
<!-- Node1&#45;&gt;Node23 -->
<g id="edge22" class="edge">
<title>Node1&#45;&gt;Node23</title>
<path fill="none" stroke="midnightblue" d="M29.85,-657.32C32.58,-695.91 44.03,-780.11 92,-827 99.65,-834.48 110.16,-839.02 120.35,-841.78"/>
<polygon fill="midnightblue" stroke="midnightblue" points="33.32,-656.68 29.25,-646.9 26.33,-657.09 33.32,-656.68"/>
</g>
<!-- Node24 -->
<g id="node24" class="node">
<title>Node24</title>
<g id="a_node24"><a xlink:href="../../dc/dd5/classSedDataSource.html" target="_top" xlink:title=" ">
<polygon fill="white" stroke="black" points="112.5,-798.5 112.5,-817.5 197.5,-817.5 197.5,-798.5 112.5,-798.5"/>
<text text-anchor="middle" x="155" y="-805.5" font-family="FreeSans" font-size="10.00">SedDataSource</text>
</a>
</g>
</g>
<!-- Node1&#45;&gt;Node24 -->
<g id="edge23" class="edge">
<title>Node1&#45;&gt;Node24</title>
<path fill="none" stroke="midnightblue" d="M31.73,-656.83C37.23,-689.18 52.67,-753.25 92,-789 97.75,-794.22 104.9,-798.01 112.29,-800.76"/>
<polygon fill="midnightblue" stroke="midnightblue" points="35.17,-656.16 30.18,-646.81 28.25,-657.23 35.17,-656.16"/>
</g>
<!-- Node25 -->
<g id="node25" class="node">
<title>Node25</title>
<g id="a_node25"><a xlink:href="../../d1/df1/classSedDocument.html" target="_top" xlink:title=" ">
<polygon fill="white" stroke="black" points="116,-760.5 116,-779.5 194,-779.5 194,-760.5 116,-760.5"/>
<text text-anchor="middle" x="155" y="-767.5" font-family="FreeSans" font-size="10.00">SedDocument</text>
</a>
</g>
</g>
<!-- Node1&#45;&gt;Node25 -->
<g id="edge24" class="edge">
<title>Node1&#45;&gt;Node25</title>
<path fill="none" stroke="midnightblue" d="M34.58,-656.15C42.93,-681.51 61.12,-725.94 92,-751 98.91,-756.6 107.45,-760.56 115.97,-763.35"/>
<polygon fill="midnightblue" stroke="midnightblue" points="37.9,-655.06 31.59,-646.56 31.22,-657.15 37.9,-655.06"/>
</g>
<!-- Node26 -->
<g id="node26" class="node">
<title>Node26</title>
<g id="a_node26"><a xlink:href="../../da/dd9/classSedExperimentReference.html" target="_top" xlink:title=" ">
<polygon fill="white" stroke="black" points="92,-722.5 92,-741.5 218,-741.5 218,-722.5 92,-722.5"/>
<text text-anchor="middle" x="155" y="-729.5" font-family="FreeSans" font-size="10.00">SedExperimentReference</text>
</a>
</g>
</g>
<!-- Node1&#45;&gt;Node26 -->
<g id="edge25" class="edge">
<title>Node1&#45;&gt;Node26</title>
<path fill="none" stroke="midnightblue" d="M39.77,-655.35C50.8,-672.62 69.5,-698 92,-713 97.81,-716.87 104.44,-719.98 111.15,-722.47"/>
<polygon fill="midnightblue" stroke="midnightblue" points="42.67,-653.39 34.45,-646.71 36.71,-657.06 42.67,-653.39"/>
</g>
<!-- Node27 -->
<g id="node27" class="node">
<title>Node27</title>
<g id="a_node27"><a xlink:href="../../d8/d98/classSedFill.html" target="_top" xlink:title=" ">
<polygon fill="white" stroke="black" points="131.5,-684.5 131.5,-703.5 178.5,-703.5 178.5,-684.5 131.5,-684.5"/>
<text text-anchor="middle" x="155" y="-691.5" font-family="FreeSans" font-size="10.00">SedFill</text>
</a>
</g>
</g>
<!-- Node1&#45;&gt;Node27 -->
<g id="edge26" class="edge">
<title>Node1&#45;&gt;Node27</title>
<path fill="none" stroke="midnightblue" d="M51.62,-652.5C63.3,-660.02 78.01,-668.75 92,-675 104.64,-680.65 119.45,-685.25 131.42,-688.52"/>
<polygon fill="midnightblue" stroke="midnightblue" points="53.24,-649.38 42.97,-646.8 49.39,-655.22 53.24,-649.38"/>
</g>
<!-- Node28 -->
<g id="node28" class="node">
<title>Node28</title>
<g id="a_node28"><a xlink:href="../../de/d19/classSedFitExperiment.html" target="_top" xlink:title=" ">
<polygon fill="white" stroke="black" points="108.5,-646.5 108.5,-665.5 201.5,-665.5 201.5,-646.5 108.5,-646.5"/>
<text text-anchor="middle" x="155" y="-653.5" font-family="FreeSans" font-size="10.00">SedFitExperiment</text>
</a>
</g>
</g>
<!-- Node1&#45;&gt;Node28 -->
<g id="edge27" class="edge">
<title>Node1&#45;&gt;Node28</title>
<path fill="none" stroke="midnightblue" d="M66.26,-642.66C79.44,-644.67 94.44,-646.95 108.25,-649.05"/>
<polygon fill="midnightblue" stroke="midnightblue" points="66.54,-639.17 56.12,-641.12 65.48,-646.09 66.54,-639.17"/>
</g>
<!-- Node29 -->
<g id="node29" class="node">
<title>Node29</title>
<g id="a_node29"><a xlink:href="../../d9/dd2/classSedFitMapping.html" target="_top" xlink:title=" ">
<polygon fill="white" stroke="black" points="114,-608.5 114,-627.5 196,-627.5 196,-608.5 114,-608.5"/>
<text text-anchor="middle" x="155" y="-615.5" font-family="FreeSans" font-size="10.00">SedFitMapping</text>
</a>
</g>
</g>
<!-- Node1&#45;&gt;Node29 -->
<g id="edge28" class="edge">
<title>Node1&#45;&gt;Node29</title>
<path fill="none" stroke="midnightblue" d="M66.06,-631.37C81.03,-629.09 98.34,-626.46 113.63,-624.14"/>
<polygon fill="midnightblue" stroke="midnightblue" points="65.48,-627.91 56.12,-632.88 66.54,-634.83 65.48,-627.91"/>
</g>
<!-- Node30 -->
<g id="node30" class="node">
<title>Node30</title>
<g id="a_node30"><a xlink:href="../../da/d91/classSedLine.html" target="_top" xlink:title=" ">
<polygon fill="white" stroke="black" points="128.5,-570.5 128.5,-589.5 181.5,-589.5 181.5,-570.5 128.5,-570.5"/>
<text text-anchor="middle" x="155" y="-577.5" font-family="FreeSans" font-size="10.00">SedLine</text>
</a>
</g>
</g>
<!-- Node1&#45;&gt;Node30 -->
<g id="edge29" class="edge">
<title>Node1&#45;&gt;Node30</title>
<path fill="none" stroke="midnightblue" d="M51.62,-621.5C63.3,-613.98 78.01,-605.25 92,-599 103.62,-593.81 117.06,-589.5 128.45,-586.31"/>
<polygon fill="midnightblue" stroke="midnightblue" points="49.39,-618.78 42.97,-627.2 53.24,-624.62 49.39,-618.78"/>
</g>
<!-- Node31 -->
<g id="node31" class="node">
<title>Node31</title>
<g id="a_node31"><a xlink:href="../../d1/d5f/classSedListOf.html" target="_top" xlink:title=" ">
<polygon fill="white" stroke="red" points="124.5,-532.5 124.5,-551.5 185.5,-551.5 185.5,-532.5 124.5,-532.5"/>
<text text-anchor="middle" x="155" y="-539.5" font-family="FreeSans" font-size="10.00">SedListOf</text>
</a>
</g>
</g>
<!-- Node1&#45;&gt;Node31 -->
<g id="edge30" class="edge">
<title>Node1&#45;&gt;Node31</title>
<path fill="none" stroke="midnightblue" d="M39.77,-618.65C50.8,-601.38 69.5,-576 92,-561 101.65,-554.57 113.57,-550.24 124.37,-547.36"/>
<polygon fill="midnightblue" stroke="midnightblue" points="36.71,-616.94 34.45,-627.29 42.67,-620.61 36.71,-616.94"/>
</g>
<!-- Node57 -->
<g id="node36" class="node">
<title>Node57</title>
<g id="a_node36"><a xlink:href="../../da/d13/classSedMarker.html" target="_top" xlink:title=" ">
<polygon fill="white" stroke="black" points="123,-494.5 123,-513.5 187,-513.5 187,-494.5 123,-494.5"/>
<text text-anchor="middle" x="155" y="-501.5" font-family="FreeSans" font-size="10.00">SedMarker</text>
</a>
</g>
</g>
<!-- Node1&#45;&gt;Node57 -->
<g id="edge35" class="edge">
<title>Node1&#45;&gt;Node57</title>
<path fill="none" stroke="midnightblue" d="M34.58,-617.85C42.93,-592.49 61.12,-548.06 92,-523 100.74,-515.91 112.12,-511.46 122.73,-508.67"/>
<polygon fill="midnightblue" stroke="midnightblue" points="31.22,-616.85 31.59,-627.44 37.9,-618.94 31.22,-616.85"/>
</g>
<!-- Node58 -->
<g id="node37" class="node">
<title>Node58</title>
<g id="a_node37"><a xlink:href="../../d0/d22/classSedModel.html" target="_top" xlink:title=" ">
<polygon fill="white" stroke="black" points="125,-456.5 125,-475.5 185,-475.5 185,-456.5 125,-456.5"/>
<text text-anchor="middle" x="155" y="-463.5" font-family="FreeSans" font-size="10.00">SedModel</text>
</a>
</g>
</g>
<!-- Node1&#45;&gt;Node58 -->
<g id="edge36" class="edge">
<title>Node1&#45;&gt;Node58</title>
<path fill="none" stroke="midnightblue" d="M31.73,-617.17C37.23,-584.82 52.67,-520.75 92,-485 101,-476.82 113.44,-472.16 124.82,-469.51"/>
<polygon fill="midnightblue" stroke="midnightblue" points="28.25,-616.77 30.18,-627.19 35.17,-617.84 28.25,-616.77"/>
</g>
<!-- Node59 -->
<g id="node38" class="node">
<title>Node59</title>
<g id="a_node38"><a xlink:href="../../d9/de0/classSedObjective.html" target="_top" xlink:title=" ">
<polygon fill="white" stroke="red" points="117.5,-418.5 117.5,-437.5 192.5,-437.5 192.5,-418.5 117.5,-418.5"/>
<text text-anchor="middle" x="155" y="-425.5" font-family="FreeSans" font-size="10.00">SedObjective</text>
</a>
</g>
</g>
<!-- Node1&#45;&gt;Node59 -->
<g id="edge37" class="edge">
<title>Node1&#45;&gt;Node59</title>
<path fill="none" stroke="midnightblue" d="M29.85,-616.68C32.58,-578.09 44.03,-493.89 92,-447 98.92,-440.23 108.19,-435.87 117.45,-433.05"/>
<polygon fill="midnightblue" stroke="midnightblue" points="26.33,-616.91 29.25,-627.1 33.32,-617.32 26.33,-616.91"/>
</g>
<!-- Node61 -->
<g id="node39" class="node">
<title>Node61</title>
<g id="a_node39"><a xlink:href="../../db/d38/classSedOutput.html" target="_top" xlink:title=" ">
<polygon fill="white" stroke="red" points="123.5,-380.5 123.5,-399.5 186.5,-399.5 186.5,-380.5 123.5,-380.5"/>
<text text-anchor="middle" x="155" y="-387.5" font-family="FreeSans" font-size="10.00">SedOutput</text>
</a>
</g>
</g>
<!-- Node1&#45;&gt;Node61 -->
<g id="edge38" class="edge">
<title>Node1&#45;&gt;Node61</title>
<path fill="none" stroke="midnightblue" d="M28.5,-616.97C28.55,-573.07 34.96,-467.64 92,-409 100.24,-400.53 112.15,-395.81 123.34,-393.19"/>
<polygon fill="midnightblue" stroke="midnightblue" points="25.01,-617.22 28.61,-627.19 32.01,-617.15 25.01,-617.22"/>
</g>
<!-- Node70 -->
<g id="node40" class="node">
<title>Node70</title>
<g id="a_node40"><a xlink:href="../../df/d03/classSedParameter.html" target="_top" xlink:title=" ">
<polygon fill="white" stroke="black" points="115.5,-342.5 115.5,-361.5 194.5,-361.5 194.5,-342.5 115.5,-342.5"/>
<text text-anchor="middle" x="155" y="-349.5" font-family="FreeSans" font-size="10.00">SedParameter</text>
</a>
</g>
</g>
<!-- Node1&#45;&gt;Node70 -->
<g id="edge39" class="edge">
<title>Node1&#45;&gt;Node70</title>
<path fill="none" stroke="midnightblue" d="M31.15,-617.15C37.53,-561.77 58.07,-407.21 92,-371 98.24,-364.35 106.73,-360 115.44,-357.17"/>
<polygon fill="midnightblue" stroke="midnightblue" points="27.64,-617.06 30,-627.39 34.6,-617.84 27.64,-617.06"/>
</g>
<!-- Node71 -->
<g id="node41" class="node">
<title>Node71</title>
<g id="a_node41"><a xlink:href="../../df/d69/classSedRange.html" target="_top" xlink:title=" ">
<polygon fill="white" stroke="red" points="124,-304.5 124,-323.5 186,-323.5 186,-304.5 124,-304.5"/>
<text text-anchor="middle" x="155" y="-311.5" font-family="FreeSans" font-size="10.00">SedRange</text>
</a>
</g>
</g>
<!-- Node1&#45;&gt;Node71 -->
<g id="edge40" class="edge">
<title>Node1&#45;&gt;Node71</title>
<path fill="none" stroke="midnightblue" d="M30.51,-617.16C35.52,-556.54 53.47,-375.3 92,-333 100.11,-324.1 112.27,-319.32 123.68,-316.77"/>
<polygon fill="midnightblue" stroke="midnightblue" points="27.01,-617.06 29.7,-627.31 33.99,-617.62 27.01,-617.06"/>
</g>
<!-- Node76 -->
<g id="node42" class="node">
<title>Node76</title>
<g id="a_node42"><a xlink:href="../../d9/df5/classSedSetValue.html" target="_top" xlink:title=" ">
<polygon fill="white" stroke="black" points="118,-266.5 118,-285.5 192,-285.5 192,-266.5 118,-266.5"/>
<text text-anchor="middle" x="155" y="-273.5" font-family="FreeSans" font-size="10.00">SedSetValue</text>
</a>
</g>
</g>
<!-- Node1&#45;&gt;Node76 -->
<g id="edge41" class="edge">
<title>Node1&#45;&gt;Node76</title>
<path fill="none" stroke="midnightblue" d="M30,-617.3C33.72,-551.91 48.81,-343.48 92,-295 98.67,-287.52 108.19,-282.94 117.78,-280.16"/>
<polygon fill="midnightblue" stroke="midnightblue" points="26.5,-617.29 29.45,-627.47 33.49,-617.67 26.5,-617.29"/>
</g>
<!-- Node77 -->
<g id="node43" class="node">
<title>Node77</title>
<g id="a_node43"><a xlink:href="../../d4/dce/classSedSimulation.html" target="_top" xlink:title=" ">
<polygon fill="white" stroke="red" points="115,-228.5 115,-247.5 195,-247.5 195,-228.5 115,-228.5"/>
<text text-anchor="middle" x="155" y="-235.5" font-family="FreeSans" font-size="10.00">SedSimulation</text>
</a>
</g>
</g>
<!-- Node1&#45;&gt;Node77 -->
<g id="edge42" class="edge">
<title>Node1&#45;&gt;Node77</title>
<path fill="none" stroke="midnightblue" d="M29.6,-617.42C32.13,-547.54 44.13,-311.7 92,-257 97.93,-250.22 106.21,-245.83 114.79,-242.98"/>
<polygon fill="midnightblue" stroke="midnightblue" points="26.1,-617.37 29.26,-627.48 33.1,-617.61 26.1,-617.37"/>
</g>
<!-- Node82 -->
<g id="node44" class="node">
<title>Node82</title>
<g id="a_node44"><a xlink:href="../../d5/d34/classSedSlice.html" target="_top" xlink:title=" ">
<polygon fill="white" stroke="black" points="127,-190.5 127,-209.5 183,-209.5 183,-190.5 127,-190.5"/>
<text text-anchor="middle" x="155" y="-197.5" font-family="FreeSans" font-size="10.00">SedSlice</text>
</a>
</g>
</g>
<!-- Node1&#45;&gt;Node82 -->
<g id="edge43" class="edge">
<title>Node1&#45;&gt;Node82</title>
<path fill="none" stroke="midnightblue" d="M29.28,-616.93C30.74,-542.01 39.58,-279.81 92,-219 100.67,-208.94 114.52,-204.12 126.94,-201.84"/>
<polygon fill="midnightblue" stroke="midnightblue" points="25.78,-617.23 29.11,-627.29 32.78,-617.35 25.78,-617.23"/>
</g>
<!-- Node83 -->
<g id="node45" class="node">
<title>Node83</title>
<g id="a_node45"><a xlink:href="../../db/d34/classSedStyle.html" target="_top" xlink:title=" ">
<polygon fill="white" stroke="black" points="127,-152.5 127,-171.5 183,-171.5 183,-152.5 127,-152.5"/>
<text text-anchor="middle" x="155" y="-159.5" font-family="FreeSans" font-size="10.00">SedStyle</text>
</a>
</g>
</g>
<!-- Node1&#45;&gt;Node83 -->
<g id="edge44" class="edge">
<title>Node1&#45;&gt;Node83</title>
<path fill="none" stroke="midnightblue" d="M29,-617.16C29.41,-538.3 34.84,-248.13 92,-181 100.61,-170.89 114.46,-166.06 126.88,-163.79"/>
<polygon fill="midnightblue" stroke="midnightblue" points="25.5,-617.19 28.97,-627.21 32.5,-617.22 25.5,-617.19"/>
</g>
<!-- Node84 -->
<g id="node46" class="node">
<title>Node84</title>
<g id="a_node46"><a xlink:href="../../dc/d54/classSedSubPlot.html" target="_top" xlink:title=" ">
<polygon fill="white" stroke="black" points="121,-114.5 121,-133.5 189,-133.5 189,-114.5 121,-114.5"/>
<text text-anchor="middle" x="155" y="-121.5" font-family="FreeSans" font-size="10.00">SedSubPlot</text>
</a>
</g>
</g>
<!-- Node1&#45;&gt;Node84 -->
<g id="edge45" class="edge">
<title>Node1&#45;&gt;Node84</title>
<path fill="none" stroke="midnightblue" d="M28.77,-617.12C28.2,-534.15 30.15,-216.41 92,-143 99.18,-134.48 110.08,-129.7 120.75,-127.06"/>
<polygon fill="midnightblue" stroke="midnightblue" points="25.27,-617.25 28.86,-627.22 32.27,-617.19 25.27,-617.25"/>
</g>
<!-- Node85 -->
<g id="node47" class="node">
<title>Node85</title>
<g id="a_node47"><a xlink:href="../../d5/dc8/classSedSubTask.html" target="_top" xlink:title=" ">
<polygon fill="white" stroke="black" points="118.5,-76.5 118.5,-95.5 191.5,-95.5 191.5,-76.5 118.5,-76.5"/>
<text text-anchor="middle" x="155" y="-83.5" font-family="FreeSans" font-size="10.00">SedSubTask</text>
</a>
</g>
</g>
<!-- Node1&#45;&gt;Node85 -->
<g id="edge46" class="edge">
<title>Node1&#45;&gt;Node85</title>
<path fill="none" stroke="midnightblue" d="M28.57,-617.27C27.07,-530.65 25.4,-184.77 92,-105 98.64,-97.05 108.51,-92.36 118.44,-89.61"/>
<polygon fill="midnightblue" stroke="midnightblue" points="25.07,-617.4 28.76,-627.33 32.07,-617.26 25.07,-617.4"/>
</g>
<!-- Node86 -->
<g id="node48" class="node">
<title>Node86</title>
<g id="a_node48"><a xlink:href="../../d6/df8/classSedSurface.html" target="_top" xlink:title=" ">
<polygon fill="white" stroke="black" points="121,-38.5 121,-57.5 189,-57.5 189,-38.5 121,-38.5"/>
<text text-anchor="middle" x="155" y="-45.5" font-family="FreeSans" font-size="10.00">SedSurface</text>
</a>
</g>
</g>
<!-- Node1&#45;&gt;Node86 -->
<g id="edge47" class="edge">
<title>Node1&#45;&gt;Node86</title>
<path fill="none" stroke="midnightblue" d="M29.91,-617.23C34.48,-521.64 56.11,-110.33 92,-67 99.18,-58.33 110.21,-53.53 120.99,-50.91"/>
<polygon fill="midnightblue" stroke="midnightblue" points="26.4,-617.34 29.43,-627.49 33.39,-617.66 26.4,-617.34"/>
</g>
<!-- Node87 -->
<g id="node49" class="node">
<title>Node87</title>
<g id="a_node49"><a xlink:href="../../db/dae/classSedVariable.html" target="_top" xlink:title=" ">
<polygon fill="white" stroke="black" points="120.5,-0.5 120.5,-19.5 189.5,-19.5 189.5,-0.5 120.5,-0.5"/>
<text text-anchor="middle" x="155" y="-7.5" font-family="FreeSans" font-size="10.00">SedVariable</text>
</a>
</g>
</g>
<!-- Node1&#45;&gt;Node87 -->
<g id="edge48" class="edge">
<title>Node1&#45;&gt;Node87</title>
<path fill="none" stroke="midnightblue" d="M29.77,-617.17C33.8,-517.64 53.74,-75.51 92,-29 99.01,-20.48 109.74,-15.7 120.31,-13.04"/>
<polygon fill="midnightblue" stroke="midnightblue" points="26.26,-617.2 29.37,-627.33 33.26,-617.48 26.26,-617.2"/>
</g>
<!-- Node3 -->
<g id="node3" class="node">
<title>Node3</title>
<g id="a_node3"><a xlink:href="../../d9/dc5/classSedCurve.html" target="_top" xlink:title=" ">
<polygon fill="white" stroke="black" points="303,-1311.5 303,-1330.5 362,-1330.5 362,-1311.5 303,-1311.5"/>
<text text-anchor="middle" x="332.5" y="-1318.5" font-family="FreeSans" font-size="10.00">SedCurve</text>
</a>
</g>
</g>
<!-- Node2&#45;&gt;Node3 -->
<g id="edge2" class="edge">
<title>Node2&#45;&gt;Node3</title>
<path fill="none" stroke="midnightblue" d="M210.39,-1294.78C240.98,-1301.4 277.93,-1309.4 302.91,-1314.81"/>
<polygon fill="midnightblue" stroke="midnightblue" points="210.8,-1291.28 200.29,-1292.59 209.32,-1298.13 210.8,-1291.28"/>
</g>
<!-- Node4 -->
<g id="node4" class="node">
<title>Node4</title>
<g id="a_node4"><a xlink:href="../../da/dee/classSedShadedArea.html" target="_top" xlink:title=" ">
<polygon fill="white" stroke="black" points="289,-1273.5 289,-1292.5 376,-1292.5 376,-1273.5 289,-1273.5"/>
<text text-anchor="middle" x="332.5" y="-1280.5" font-family="FreeSans" font-size="10.00">SedShadedArea</text>
</a>
</g>
</g>
<!-- Node2&#45;&gt;Node4 -->
<g id="edge3" class="edge">
<title>Node2&#45;&gt;Node4</title>
<path fill="none" stroke="midnightblue" d="M213.32,-1283C237.91,-1283 266.14,-1283 288.85,-1283"/>
<polygon fill="midnightblue" stroke="midnightblue" points="213.03,-1279.5 203.03,-1283 213.03,-1286.5 213.03,-1279.5"/>
</g>
<!-- Node6 -->
<g id="node6" class="node">
<title>Node6</title>
<g id="a_node6"><a xlink:href="../../d4/dd9/classSedParameterEstimationTask.html" target="_top" xlink:title=" ">
<polygon fill="white" stroke="black" points="259.5,-1235.5 259.5,-1254.5 405.5,-1254.5 405.5,-1235.5 259.5,-1235.5"/>
<text text-anchor="middle" x="332.5" y="-1242.5" font-family="FreeSans" font-size="10.00">SedParameterEstimationTask</text>
</a>
</g>
</g>
<!-- Node5&#45;&gt;Node6 -->
<g id="edge5" class="edge">
<title>Node5&#45;&gt;Node6</title>
<path fill="none" stroke="midnightblue" d="M211.43,-1232C226.6,-1233.64 243.26,-1235.45 259.22,-1237.17"/>
<polygon fill="midnightblue" stroke="midnightblue" points="211.51,-1228.49 201.2,-1230.89 210.76,-1235.45 211.51,-1228.49"/>
</g>
<!-- Node7 -->
<g id="node7" class="node">
<title>Node7</title>
<g id="a_node7"><a xlink:href="../../de/d08/classSedRepeatedTask.html" target="_top" xlink:title=" ">
<polygon fill="white" stroke="black" points="284,-1197.5 284,-1216.5 381,-1216.5 381,-1197.5 284,-1197.5"/>
<text text-anchor="middle" x="332.5" y="-1204.5" font-family="FreeSans" font-size="10.00">SedRepeatedTask</text>
</a>
</g>
</g>
<!-- Node5&#45;&gt;Node7 -->
<g id="edge6" class="edge">
<title>Node5&#45;&gt;Node7</title>
<path fill="none" stroke="midnightblue" d="M211.26,-1220.02C234.51,-1217.5 261.31,-1214.6 283.69,-1212.18"/>
<polygon fill="midnightblue" stroke="midnightblue" points="210.76,-1216.55 201.2,-1221.11 211.51,-1223.51 210.76,-1216.55"/>
</g>
<!-- Node8 -->
<g id="node8" class="node">
<title>Node8</title>
<g id="a_node8"><a xlink:href="../../dc/d03/classSedTask.html" target="_top" xlink:title=" ">
<polygon fill="white" stroke="black" points="304.5,-1159.5 304.5,-1178.5 360.5,-1178.5 360.5,-1159.5 304.5,-1159.5"/>
<text text-anchor="middle" x="332.5" y="-1166.5" font-family="FreeSans" font-size="10.00">SedTask</text>
</a>
</g>
</g>
<!-- Node5&#45;&gt;Node8 -->
<g id="edge7" class="edge">
<title>Node5&#45;&gt;Node8</title>
<path fill="none" stroke="midnightblue" d="M200.88,-1213.35C206.7,-1211.39 212.53,-1209.26 218,-1207 234.72,-1200.1 237.09,-1194.42 254,-1188 270.32,-1181.8 289.35,-1177.1 304.47,-1173.93"/>
<polygon fill="midnightblue" stroke="midnightblue" points="199.61,-1210.08 191.17,-1216.48 201.76,-1216.74 199.61,-1210.08"/>
</g>
<!-- Node16 -->
<g id="node16" class="node">
<title>Node16</title>
<g id="a_node16"><a xlink:href="../../de/d88/classSedAddXML.html" target="_top" xlink:title=" ">
<polygon fill="white" stroke="black" points="296.5,-1026.5 296.5,-1045.5 368.5,-1045.5 368.5,-1026.5 296.5,-1026.5"/>
<text text-anchor="middle" x="332.5" y="-1033.5" font-family="FreeSans" font-size="10.00">SedAddXML</text>
</a>
</g>
</g>
<!-- Node15&#45;&gt;Node16 -->
<g id="edge15" class="edge">
<title>Node15&#45;&gt;Node16</title>
<path fill="none" stroke="midnightblue" d="M198.47,-969.8C205.27,-972.27 212.02,-975.29 218,-979 237.77,-991.26 233.89,-1005.31 254,-1017 266.82,-1024.45 282.46,-1028.99 296.32,-1031.75"/>
<polygon fill="midnightblue" stroke="midnightblue" points="199.17,-966.35 188.57,-966.59 197.01,-973.01 199.17,-966.35"/>
</g>
<!-- Node17 -->
<g id="node17" class="node">
<title>Node17</title>
<g id="a_node17"><a xlink:href="../../d6/d34/classSedChangeAttribute.html" target="_top" xlink:title=" ">
<polygon fill="white" stroke="black" points="280.5,-988.5 280.5,-1007.5 384.5,-1007.5 384.5,-988.5 280.5,-988.5"/>
<text text-anchor="middle" x="332.5" y="-995.5" font-family="FreeSans" font-size="10.00">SedChangeAttribute</text>
</a>
</g>
</g>
<!-- Node15&#45;&gt;Node17 -->
<g id="edge16" class="edge">
<title>Node15&#45;&gt;Node17</title>
<path fill="none" stroke="midnightblue" d="M198.51,-969.21C225.47,-975.04 260.26,-982.57 287.49,-988.47"/>
<polygon fill="midnightblue" stroke="midnightblue" points="199.11,-965.75 188.6,-967.06 197.63,-972.6 199.11,-965.75"/>
</g>
<!-- Node18 -->
<g id="node18" class="node">
<title>Node18</title>
<g id="a_node18"><a xlink:href="../../dd/d8b/classSedChangeXML.html" target="_top" xlink:title=" ">
<polygon fill="white" stroke="black" points="288.5,-950.5 288.5,-969.5 376.5,-969.5 376.5,-950.5 288.5,-950.5"/>
<text text-anchor="middle" x="332.5" y="-957.5" font-family="FreeSans" font-size="10.00">SedChangeXML</text>
</a>
</g>
</g>
<!-- Node15&#45;&gt;Node18 -->
<g id="edge17" class="edge">
<title>Node15&#45;&gt;Node18</title>
<path fill="none" stroke="midnightblue" d="M198.62,-960C225.89,-960 261.13,-960 288.47,-960"/>
<polygon fill="midnightblue" stroke="midnightblue" points="198.6,-956.5 188.6,-960 198.6,-963.5 198.6,-956.5"/>
</g>
<!-- Node19 -->
<g id="node19" class="node">
<title>Node19</title>
<g id="a_node19"><a xlink:href="../../d0/d01/classSedComputeChange.html" target="_top" xlink:title=" ">
<polygon fill="white" stroke="black" points="279.5,-912.5 279.5,-931.5 385.5,-931.5 385.5,-912.5 279.5,-912.5"/>
<text text-anchor="middle" x="332.5" y="-919.5" font-family="FreeSans" font-size="10.00">SedComputeChange</text>
</a>
</g>
</g>
<!-- Node15&#45;&gt;Node19 -->
<g id="edge18" class="edge">
<title>Node15&#45;&gt;Node19</title>
<path fill="none" stroke="midnightblue" d="M198.51,-950.79C225.47,-944.96 260.26,-937.43 287.49,-931.53"/>
<polygon fill="midnightblue" stroke="midnightblue" points="197.63,-947.4 188.6,-952.94 199.11,-954.25 197.63,-947.4"/>
</g>
<!-- Node20 -->
<g id="node20" class="node">
<title>Node20</title>
<g id="a_node20"><a xlink:href="../../d4/dc0/classSedRemoveXML.html" target="_top" xlink:title=" ">
<polygon fill="white" stroke="black" points="287,-874.5 287,-893.5 378,-893.5 378,-874.5 287,-874.5"/>
<text text-anchor="middle" x="332.5" y="-881.5" font-family="FreeSans" font-size="10.00">SedRemoveXML</text>
</a>
</g>
</g>
<!-- Node15&#45;&gt;Node20 -->
<g id="edge19" class="edge">
<title>Node15&#45;&gt;Node20</title>
<path fill="none" stroke="midnightblue" d="M198.47,-950.2C205.27,-947.73 212.02,-944.71 218,-941 237.77,-928.74 233.89,-914.69 254,-903 263.94,-897.22 275.58,-893.19 286.78,-890.39"/>
<polygon fill="midnightblue" stroke="midnightblue" points="197.01,-946.99 188.57,-953.41 199.17,-953.65 197.01,-946.99"/>
</g>
<!-- Node32 -->
<g id="node32" class="node">
<title>Node32</title>
<g id="a_node32"><a xlink:href="../../d0/d8c/classSedListOfAdjustableParameters.html" target="_top" xlink:title=" ">
<polygon fill="white" stroke="black" points="254,-589.5 254,-608.5 411,-608.5 411,-589.5 254,-589.5"/>
<text text-anchor="middle" x="332.5" y="-596.5" font-family="FreeSans" font-size="10.00">SedListOfAdjustableParameters</text>
</a>
</g>
</g>
<!-- Node31&#45;&gt;Node32 -->
<g id="edge31" class="edge">
<title>Node31&#45;&gt;Node32</title>
<path fill="none" stroke="midnightblue" d="M195.48,-552.88C203.04,-555.3 210.84,-558.04 218,-561 234.72,-567.9 237.09,-573.58 254,-580 263.71,-583.69 274.39,-586.85 284.62,-589.47"/>
<polygon fill="midnightblue" stroke="midnightblue" points="196.32,-549.47 185.73,-549.87 194.26,-556.16 196.32,-549.47"/>
</g>
<!-- Node33 -->
<g id="node33" class="node">
<title>Node33</title>
<g id="a_node33"><a xlink:href="../../d6/dbf/classSedListOfAlgorithmParameters.html" target="_top" xlink:title=" ">
<polygon fill="white" stroke="black" points="256.5,-551.5 256.5,-570.5 408.5,-570.5 408.5,-551.5 256.5,-551.5"/>
<text text-anchor="middle" x="332.5" y="-558.5" font-family="FreeSans" font-size="10.00">SedListOfAlgorithmParameters</text>
</a>
</g>
</g>
<!-- Node31&#45;&gt;Node33 -->
<g id="edge32" class="edge">
<title>Node31&#45;&gt;Node33</title>
<path fill="none" stroke="midnightblue" d="M195.82,-546.31C213.69,-548.25 235.39,-550.59 256.15,-552.84"/>
<polygon fill="midnightblue" stroke="midnightblue" points="196.09,-542.82 185.77,-545.22 195.34,-549.78 196.09,-542.82"/>
</g>
<!-- Node34 -->
<g id="node34" class="node">
<title>Node34</title>
<g id="a_node34"><a xlink:href="../../d1/dea/classSedListOfAppliedDimensions.html" target="_top" xlink:title=" ">
<polygon fill="white" stroke="black" points="260.5,-513.5 260.5,-532.5 404.5,-532.5 404.5,-513.5 260.5,-513.5"/>
<text text-anchor="middle" x="332.5" y="-520.5" font-family="FreeSans" font-size="10.00">SedListOfAppliedDimensions</text>
</a>
</g>
</g>
<!-- Node31&#45;&gt;Node34 -->
<g id="edge33" class="edge">
<title>Node31&#45;&gt;Node34</title>
<path fill="none" stroke="midnightblue" d="M195.87,-537.68C214.92,-535.62 238.31,-533.09 260.27,-530.71"/>
<polygon fill="midnightblue" stroke="midnightblue" points="195.34,-534.22 185.77,-538.78 196.09,-541.18 195.34,-534.22"/>
</g>
<!-- Node35 -->
<g id="node35" class="node">
<title>Node35</title>
<g id="a_node35"><a xlink:href="../../dd/d61/classSedListOfChanges.html" target="_top" xlink:title=" ">
<polygon fill="white" stroke="black" points="283,-475.5 283,-494.5 382,-494.5 382,-475.5 283,-475.5"/>
<text text-anchor="middle" x="332.5" y="-482.5" font-family="FreeSans" font-size="10.00">SedListOfChanges</text>
</a>
</g>
</g>
<!-- Node31&#45;&gt;Node35 -->
<g id="edge34" class="edge">
<title>Node31&#45;&gt;Node35</title>
<path fill="none" stroke="midnightblue" d="M195.48,-531.12C203.04,-528.7 210.84,-525.96 218,-523 234.72,-516.1 237.09,-510.42 254,-504 263.71,-500.31 274.39,-497.15 284.62,-494.53"/>
<polygon fill="midnightblue" stroke="midnightblue" points="194.26,-527.84 185.73,-534.13 196.32,-534.53 194.26,-527.84"/>
</g>
</g>
</svg>
