<?xml version="1.0" encoding="UTF-8" standalone="no"?>
<!DOCTYPE svg PUBLIC "-//W3C//DTD SVG 1.1//EN"
 "http://www.w3.org/Graphics/SVG/1.1/DTD/svg11.dtd">
<!-- Generated by graphviz version 2.43.0 (0)
 -->
<!-- Title: SedRange Pages: 1 -->
<svg width="438pt" height="140pt"
 viewBox="0.00 0.00 438.00 140.00" xmlns="http://www.w3.org/2000/svg" xmlns:xlink="http://www.w3.org/1999/xlink">
<g id="graph0" class="graph" transform="scale(1 1) rotate(0) translate(4 136)">
<title>SedRange</title>
<polygon fill="white" stroke="transparent" points="-4,4 -4,-136 434,-136 434,4 -4,4"/>
<!-- Node1 -->
<g id="node1" class="node">
<title>Node1</title>
<g id="a_node1"><a xlink:title=" ">
<polygon fill="#bfbfbf" stroke="black" points="183,-56.5 183,-75.5 245,-75.5 245,-56.5 183,-56.5"/>
<text text-anchor="middle" x="214" y="-63.5" font-family="FreeSans" font-size="10.00">SedRange</text>
</a>
</g>
</g>
<!-- Node3 -->
<g id="node3" class="node">
<title>Node3</title>
<g id="a_node3"><a xlink:href="../../d2/d72/classSedDataRange.html" target="_top" xlink:title=" ">
<polygon fill="white" stroke="black" points="0,-0.5 0,-19.5 82,-19.5 82,-0.5 0,-0.5"/>
<text text-anchor="middle" x="41" y="-7.5" font-family="FreeSans" font-size="10.00">SedDataRange</text>
</a>
</g>
</g>
<!-- Node1&#45;&gt;Node3 -->
<g id="edge2" class="edge">
<title>Node1&#45;&gt;Node3</title>
<path fill="none" stroke="midnightblue" d="M176.95,-53.44C144.34,-43.26 97.59,-28.66 68.28,-19.52"/>
<polygon fill="midnightblue" stroke="midnightblue" points="176,-56.8 186.59,-56.44 178.08,-50.12 176,-56.8"/>
</g>
<!-- Node4 -->
<g id="node4" class="node">
<title>Node4</title>
<g id="a_node4"><a xlink:href="../../d2/d38/classSedFunctionalRange.html" target="_top" xlink:title=" ">
<polygon fill="white" stroke="black" points="100.5,-0.5 100.5,-19.5 207.5,-19.5 207.5,-0.5 100.5,-0.5"/>
<text text-anchor="middle" x="154" y="-7.5" font-family="FreeSans" font-size="10.00">SedFunctionalRange</text>
</a>
</g>
</g>
<!-- Node1&#45;&gt;Node4 -->
<g id="edge3" class="edge">
<title>Node1&#45;&gt;Node4</title>
<path fill="none" stroke="midnightblue" d="M196.82,-49.54C186.12,-39.91 172.74,-27.87 163.82,-19.83"/>
<polygon fill="midnightblue" stroke="midnightblue" points="194.59,-52.24 204.36,-56.32 199.27,-47.03 194.59,-52.24"/>
</g>
<!-- Node5 -->
<g id="node5" class="node">
<title>Node5</title>
<g id="a_node5"><a xlink:href="../../d5/db4/classSedUniformRange.html" target="_top" xlink:title=" ">
<polygon fill="white" stroke="black" points="226,-0.5 226,-19.5 322,-19.5 322,-0.5 226,-0.5"/>
<text text-anchor="middle" x="274" y="-7.5" font-family="FreeSans" font-size="10.00">SedUniformRange</text>
</a>
</g>
</g>
<!-- Node1&#45;&gt;Node5 -->
<g id="edge4" class="edge">
<title>Node1&#45;&gt;Node5</title>
<path fill="none" stroke="midnightblue" d="M231.18,-49.54C241.88,-39.91 255.26,-27.87 264.18,-19.83"/>
<polygon fill="midnightblue" stroke="midnightblue" points="228.73,-47.03 223.64,-56.32 233.41,-52.24 228.73,-47.03"/>
</g>
<!-- Node6 -->
<g id="node6" class="node">
<title>Node6</title>
<g id="a_node6"><a xlink:href="../../d7/d42/classSedVectorRange.html" target="_top" xlink:title=" ">
<polygon fill="white" stroke="black" points="340,-0.5 340,-19.5 430,-19.5 430,-0.5 340,-0.5"/>
<text text-anchor="middle" x="385" y="-7.5" font-family="FreeSans" font-size="10.00">SedVectorRange</text>
</a>
</g>
</g>
<!-- Node1&#45;&gt;Node6 -->
<g id="edge5" class="edge">
<title>Node1&#45;&gt;Node6</title>
<path fill="none" stroke="midnightblue" d="M251.04,-53.3C283.26,-43.13 329.19,-28.62 358.03,-19.52"/>
<polygon fill="midnightblue" stroke="midnightblue" points="249.58,-50.09 241.1,-56.44 251.69,-56.77 249.58,-50.09"/>
</g>
<!-- Node2 -->
<g id="node2" class="node">
<title>Node2</title>
<g id="a_node2"><a xlink:href="../../d9/dfe/classSedBase.html" target="_top" xlink:title=" ">
<polygon fill="white" stroke="black" points="186,-112.5 186,-131.5 242,-131.5 242,-112.5 186,-112.5"/>
<text text-anchor="middle" x="214" y="-119.5" font-family="FreeSans" font-size="10.00">SedBase</text>
</a>
</g>
</g>
<!-- Node2&#45;&gt;Node1 -->
<g id="edge1" class="edge">
<title>Node2&#45;&gt;Node1</title>
<path fill="none" stroke="midnightblue" d="M214,-101.8C214,-92.91 214,-82.78 214,-75.75"/>
<polygon fill="midnightblue" stroke="midnightblue" points="210.5,-102.08 214,-112.08 217.5,-102.08 210.5,-102.08"/>
</g>
</g>
</svg>
