<?xml version="1.0" encoding="UTF-8" standalone="no"?>
<!DOCTYPE svg PUBLIC "-//W3C//DTD SVG 1.1//EN"
 "http://www.w3.org/Graphics/SVG/1.1/DTD/svg11.dtd">
<!-- Generated by graphviz version 2.43.0 (0)
 -->
<!-- Title: SedOutput Pages: 1 -->
<svg width="463pt" height="196pt"
 viewBox="0.00 0.00 463.00 196.00" xmlns="http://www.w3.org/2000/svg" xmlns:xlink="http://www.w3.org/1999/xlink">
<g id="graph0" class="graph" transform="scale(1 1) rotate(0) translate(4 192)">
<title>SedOutput</title>
<polygon fill="white" stroke="transparent" points="-4,4 -4,-192 459,-192 459,4 -4,4"/>
<!-- Node1 -->
<g id="node1" class="node">
<title>Node1</title>
<g id="a_node1"><a xlink:title=" ">
<polygon fill="#bfbfbf" stroke="black" points="184,-112.5 184,-131.5 247,-131.5 247,-112.5 184,-112.5"/>
<text text-anchor="middle" x="215.5" y="-119.5" font-family="FreeSans" font-size="10.00">SedOutput</text>
</a>
</g>
</g>
<!-- Node3 -->
<g id="node3" class="node">
<title>Node3</title>
<g id="a_node3"><a xlink:href="../../d2/d8e/classSedFigure.html" target="_top" xlink:title=" ">
<polygon fill="white" stroke="black" points="0,-56.5 0,-75.5 61,-75.5 61,-56.5 0,-56.5"/>
<text text-anchor="middle" x="30.5" y="-63.5" font-family="FreeSans" font-size="10.00">SedFigure</text>
</a>
</g>
</g>
<!-- Node1&#45;&gt;Node3 -->
<g id="edge2" class="edge">
<title>Node1&#45;&gt;Node3</title>
<path fill="none" stroke="midnightblue" d="M176.33,-109.57C141.43,-99.38 91.15,-84.7 59.68,-75.52"/>
<polygon fill="midnightblue" stroke="midnightblue" points="175.61,-113 186.19,-112.44 177.57,-106.28 175.61,-113"/>
</g>
<!-- Node4 -->
<g id="node4" class="node">
<title>Node4</title>
<g id="a_node4"><a xlink:href="../../d3/d9d/classSedParameterEstimationReport.html" target="_top" xlink:title=" ">
<polygon fill="white" stroke="black" points="79,-56.5 79,-75.5 232,-75.5 232,-56.5 79,-56.5"/>
<text text-anchor="middle" x="155.5" y="-63.5" font-family="FreeSans" font-size="10.00">SedParameterEstimationReport</text>
</a>
</g>
</g>
<!-- Node1&#45;&gt;Node4 -->
<g id="edge3" class="edge">
<title>Node1&#45;&gt;Node4</title>
<path fill="none" stroke="midnightblue" d="M198.32,-105.54C187.62,-95.91 174.24,-83.87 165.32,-75.83"/>
<polygon fill="midnightblue" stroke="midnightblue" points="196.09,-108.24 205.86,-112.32 200.77,-103.03 196.09,-108.24"/>
</g>
<!-- Node5 -->
<g id="node5" class="node">
<title>Node5</title>
<g id="a_node5"><a xlink:href="../../d5/d21/classSedPlot.html" target="_top" xlink:title=" ">
<polygon fill="white" stroke="black" points="250,-56.5 250,-75.5 301,-75.5 301,-56.5 250,-56.5"/>
<text text-anchor="middle" x="275.5" y="-63.5" font-family="FreeSans" font-size="10.00">SedPlot</text>
</a>
</g>
</g>
<!-- Node1&#45;&gt;Node5 -->
<g id="edge4" class="edge">
<title>Node1&#45;&gt;Node5</title>
<path fill="none" stroke="midnightblue" d="M232.68,-105.54C243.38,-95.91 256.76,-83.87 265.68,-75.83"/>
<polygon fill="midnightblue" stroke="midnightblue" points="230.23,-103.03 225.14,-112.32 234.91,-108.24 230.23,-103.03"/>
</g>
<!-- Node10 -->
<g id="node10" class="node">
<title>Node10</title>
<g id="a_node10"><a xlink:href="../../d3/d01/classSedReport.html" target="_top" xlink:title=" ">
<polygon fill="white" stroke="black" points="319.5,-56.5 319.5,-75.5 381.5,-75.5 381.5,-56.5 319.5,-56.5"/>
<text text-anchor="middle" x="350.5" y="-63.5" font-family="FreeSans" font-size="10.00">SedReport</text>
</a>
</g>
</g>
<!-- Node1&#45;&gt;Node10 -->
<g id="edge9" class="edge">
<title>Node1&#45;&gt;Node10</title>
<path fill="none" stroke="midnightblue" d="M246.41,-108.64C271.74,-98.5 306.93,-84.43 329.21,-75.52"/>
<polygon fill="midnightblue" stroke="midnightblue" points="244.88,-105.48 236.89,-112.44 247.48,-111.98 244.88,-105.48"/>
</g>
<!-- Node2 -->
<g id="node2" class="node">
<title>Node2</title>
<g id="a_node2"><a xlink:href="../../d9/dfe/classSedBase.html" target="_top" xlink:title=" ">
<polygon fill="white" stroke="black" points="187.5,-168.5 187.5,-187.5 243.5,-187.5 243.5,-168.5 187.5,-168.5"/>
<text text-anchor="middle" x="215.5" y="-175.5" font-family="FreeSans" font-size="10.00">SedBase</text>
</a>
</g>
</g>
<!-- Node2&#45;&gt;Node1 -->
<g id="edge1" class="edge">
<title>Node2&#45;&gt;Node1</title>
<path fill="none" stroke="midnightblue" d="M215.5,-157.8C215.5,-148.91 215.5,-138.78 215.5,-131.75"/>
<polygon fill="midnightblue" stroke="midnightblue" points="212,-158.08 215.5,-168.08 219,-158.08 212,-158.08"/>
</g>
<!-- Node6 -->
<g id="node6" class="node">
<title>Node6</title>
<g id="a_node6"><a xlink:href="../../df/d64/classSedParameterEstimationResultPlot.html" target="_top" xlink:title=" ">
<polygon fill="white" stroke="black" points="15.5,-0.5 15.5,-19.5 185.5,-19.5 185.5,-0.5 15.5,-0.5"/>
<text text-anchor="middle" x="100.5" y="-7.5" font-family="FreeSans" font-size="10.00">SedParameterEstimationResultPlot</text>
</a>
</g>
</g>
<!-- Node5&#45;&gt;Node6 -->
<g id="edge5" class="edge">
<title>Node5&#45;&gt;Node6</title>
<path fill="none" stroke="midnightblue" d="M239.96,-54.03C206.93,-43.84 158.4,-28.87 128.16,-19.54"/>
<polygon fill="midnightblue" stroke="midnightblue" points="239.09,-57.43 249.68,-57.03 241.15,-50.74 239.09,-57.43"/>
</g>
<!-- Node7 -->
<g id="node7" class="node">
<title>Node7</title>
<g id="a_node7"><a xlink:href="../../d2/d96/classSedPlot2D.html" target="_top" xlink:title=" ">
<polygon fill="white" stroke="black" points="204,-0.5 204,-19.5 267,-19.5 267,-0.5 204,-0.5"/>
<text text-anchor="middle" x="235.5" y="-7.5" font-family="FreeSans" font-size="10.00">SedPlot2D</text>
</a>
</g>
</g>
<!-- Node5&#45;&gt;Node7 -->
<g id="edge6" class="edge">
<title>Node5&#45;&gt;Node7</title>
<path fill="none" stroke="midnightblue" d="M262.8,-47.86C255.87,-38.5 247.59,-27.33 241.98,-19.75"/>
<polygon fill="midnightblue" stroke="midnightblue" points="260.13,-50.13 268.89,-56.08 265.75,-45.96 260.13,-50.13"/>
</g>
<!-- Node8 -->
<g id="node8" class="node">
<title>Node8</title>
<g id="a_node8"><a xlink:href="../../d8/d57/classSedPlot3D.html" target="_top" xlink:title=" ">
<polygon fill="white" stroke="black" points="285,-0.5 285,-19.5 348,-19.5 348,-0.5 285,-0.5"/>
<text text-anchor="middle" x="316.5" y="-7.5" font-family="FreeSans" font-size="10.00">SedPlot3D</text>
</a>
</g>
</g>
<!-- Node5&#45;&gt;Node8 -->
<g id="edge7" class="edge">
<title>Node5&#45;&gt;Node8</title>
<path fill="none" stroke="midnightblue" d="M288.52,-47.86C295.62,-38.5 304.1,-27.33 309.86,-19.75"/>
<polygon fill="midnightblue" stroke="midnightblue" points="285.53,-46 282.27,-56.08 291.11,-50.24 285.53,-46"/>
</g>
<!-- Node9 -->
<g id="node9" class="node">
<title>Node9</title>
<g id="a_node9"><a xlink:href="../../d9/d37/classSedWaterfallPlot.html" target="_top" xlink:title=" ">
<polygon fill="white" stroke="black" points="366,-0.5 366,-19.5 455,-19.5 455,-0.5 366,-0.5"/>
<text text-anchor="middle" x="410.5" y="-7.5" font-family="FreeSans" font-size="10.00">SedWaterfallPlot</text>
</a>
</g>
</g>
<!-- Node5&#45;&gt;Node9 -->
<g id="edge8" class="edge">
<title>Node5&#45;&gt;Node9</title>
<path fill="none" stroke="midnightblue" d="M306.41,-52.64C331.74,-42.5 366.93,-28.43 389.21,-19.52"/>
<polygon fill="midnightblue" stroke="midnightblue" points="304.88,-49.48 296.89,-56.44 307.48,-55.98 304.88,-49.48"/>
</g>
</g>
</svg>
