<?xml version="1.0" encoding="UTF-8" standalone="no"?>
<!DOCTYPE svg PUBLIC "-//W3C//DTD SVG 1.1//EN"
 "http://www.w3.org/Graphics/SVG/1.1/DTD/svg11.dtd">
<!-- Generated by graphviz version 2.43.0 (0)
 -->
<!-- Title: SedAbstractCurve Pages: 1 -->
<svg width="172pt" height="140pt"
 viewBox="0.00 0.00 172.00 140.00" xmlns="http://www.w3.org/2000/svg" xmlns:xlink="http://www.w3.org/1999/xlink">
<g id="graph0" class="graph" transform="scale(1 1) rotate(0) translate(4 136)">
<title>SedAbstractCurve</title>
<polygon fill="white" stroke="transparent" points="-4,4 -4,-136 168,-136 168,4 -4,4"/>
<!-- Node1 -->
<g id="node1" class="node">
<title>Node1</title>
<g id="a_node1"><a xlink:title=" ">
<polygon fill="#bfbfbf" stroke="black" points="26.5,-56.5 26.5,-75.5 122.5,-75.5 122.5,-56.5 26.5,-56.5"/>
<text text-anchor="middle" x="74.5" y="-63.5" font-family="FreeSans" font-size="10.00">SedAbstractCurve</text>
</a>
</g>
</g>
<!-- Node3 -->
<g id="node3" class="node">
<title>Node3</title>
<g id="a_node3"><a xlink:href="../../d9/dc5/classSedCurve.html" target="_top" xlink:title=" ">
<polygon fill="white" stroke="black" points="0,-0.5 0,-19.5 59,-19.5 59,-0.5 0,-0.5"/>
<text text-anchor="middle" x="29.5" y="-7.5" font-family="FreeSans" font-size="10.00">SedCurve</text>
</a>
</g>
</g>
<!-- Node1&#45;&gt;Node3 -->
<g id="edge2" class="edge">
<title>Node1&#45;&gt;Node3</title>
<path fill="none" stroke="midnightblue" d="M60.45,-48.14C52.61,-38.74 43.17,-27.4 36.79,-19.75"/>
<polygon fill="midnightblue" stroke="midnightblue" points="57.98,-50.64 67.07,-56.08 63.36,-46.16 57.98,-50.64"/>
</g>
<!-- Node4 -->
<g id="node4" class="node">
<title>Node4</title>
<g id="a_node4"><a xlink:href="../../da/dee/classSedShadedArea.html" target="_top" xlink:title=" ">
<polygon fill="white" stroke="black" points="77,-0.5 77,-19.5 164,-19.5 164,-0.5 77,-0.5"/>
<text text-anchor="middle" x="120.5" y="-7.5" font-family="FreeSans" font-size="10.00">SedShadedArea</text>
</a>
</g>
</g>
<!-- Node1&#45;&gt;Node4 -->
<g id="edge3" class="edge">
<title>Node1&#45;&gt;Node4</title>
<path fill="none" stroke="midnightblue" d="M88.61,-48.43C96.68,-38.97 106.46,-27.48 113.05,-19.75"/>
<polygon fill="midnightblue" stroke="midnightblue" points="85.92,-46.2 82.1,-56.08 91.25,-50.74 85.92,-46.2"/>
</g>
<!-- Node2 -->
<g id="node2" class="node">
<title>Node2</title>
<g id="a_node2"><a xlink:href="../../d9/dfe/classSedBase.html" target="_top" xlink:title=" ">
<polygon fill="white" stroke="black" points="46.5,-112.5 46.5,-131.5 102.5,-131.5 102.5,-112.5 46.5,-112.5"/>
<text text-anchor="middle" x="74.5" y="-119.5" font-family="FreeSans" font-size="10.00">SedBase</text>
</a>
</g>
</g>
<!-- Node2&#45;&gt;Node1 -->
<g id="edge1" class="edge">
<title>Node2&#45;&gt;Node1</title>
<path fill="none" stroke="midnightblue" d="M74.5,-101.8C74.5,-92.91 74.5,-82.78 74.5,-75.75"/>
<polygon fill="midnightblue" stroke="midnightblue" points="71,-102.08 74.5,-112.08 78,-102.08 71,-102.08"/>
</g>
</g>
</svg>
