<?xml version="1.0" encoding="UTF-8" standalone="no"?>
<!DOCTYPE svg PUBLIC "-//W3C//DTD SVG 1.1//EN"
 "http://www.w3.org/Graphics/SVG/1.1/DTD/svg11.dtd">
<!-- Generated by graphviz version 2.43.0 (0)
 -->
<!-- Title: SedPlot Pages: 1 -->
<svg width="448pt" height="196pt"
 viewBox="0.00 0.00 447.50 196.00" xmlns="http://www.w3.org/2000/svg" xmlns:xlink="http://www.w3.org/1999/xlink">
<g id="graph0" class="graph" transform="scale(1 1) rotate(0) translate(4 192)">
<title>SedPlot</title>
<polygon fill="white" stroke="transparent" points="-4,4 -4,-192 443.5,-192 443.5,4 -4,4"/>
<!-- Node1 -->
<g id="node1" class="node">
<title>Node1</title>
<g id="a_node1"><a xlink:title=" ">
<polygon fill="#bfbfbf" stroke="black" points="234.5,-56.5 234.5,-75.5 285.5,-75.5 285.5,-56.5 234.5,-56.5"/>
<text text-anchor="middle" x="260" y="-63.5" font-family="FreeSans" font-size="10.00">SedPlot</text>
</a>
</g>
</g>
<!-- Node4 -->
<g id="node4" class="node">
<title>Node4</title>
<g id="a_node4"><a xlink:href="../../df/d64/classSedParameterEstimationResultPlot.html" target="_top" xlink:title=" ">
<polygon fill="white" stroke="black" points="0,-0.5 0,-19.5 170,-19.5 170,-0.5 0,-0.5"/>
<text text-anchor="middle" x="85" y="-7.5" font-family="FreeSans" font-size="10.00">SedParameterEstimationResultPlot</text>
</a>
</g>
</g>
<!-- Node1&#45;&gt;Node4 -->
<g id="edge3" class="edge">
<title>Node1&#45;&gt;Node4</title>
<path fill="none" stroke="midnightblue" d="M224.46,-54.03C191.43,-43.84 142.9,-28.87 112.66,-19.54"/>
<polygon fill="midnightblue" stroke="midnightblue" points="223.59,-57.43 234.18,-57.03 225.65,-50.74 223.59,-57.43"/>
</g>
<!-- Node5 -->
<g id="node5" class="node">
<title>Node5</title>
<g id="a_node5"><a xlink:href="../../d2/d96/classSedPlot2D.html" target="_top" xlink:title=" ">
<polygon fill="white" stroke="black" points="188.5,-0.5 188.5,-19.5 251.5,-19.5 251.5,-0.5 188.5,-0.5"/>
<text text-anchor="middle" x="220" y="-7.5" font-family="FreeSans" font-size="10.00">SedPlot2D</text>
</a>
</g>
</g>
<!-- Node1&#45;&gt;Node5 -->
<g id="edge4" class="edge">
<title>Node1&#45;&gt;Node5</title>
<path fill="none" stroke="midnightblue" d="M247.3,-47.86C240.37,-38.5 232.09,-27.33 226.48,-19.75"/>
<polygon fill="midnightblue" stroke="midnightblue" points="244.63,-50.13 253.39,-56.08 250.25,-45.96 244.63,-50.13"/>
</g>
<!-- Node6 -->
<g id="node6" class="node">
<title>Node6</title>
<g id="a_node6"><a xlink:href="../../d8/d57/classSedPlot3D.html" target="_top" xlink:title=" ">
<polygon fill="white" stroke="black" points="269.5,-0.5 269.5,-19.5 332.5,-19.5 332.5,-0.5 269.5,-0.5"/>
<text text-anchor="middle" x="301" y="-7.5" font-family="FreeSans" font-size="10.00">SedPlot3D</text>
</a>
</g>
</g>
<!-- Node1&#45;&gt;Node6 -->
<g id="edge5" class="edge">
<title>Node1&#45;&gt;Node6</title>
<path fill="none" stroke="midnightblue" d="M273.02,-47.86C280.12,-38.5 288.6,-27.33 294.36,-19.75"/>
<polygon fill="midnightblue" stroke="midnightblue" points="270.03,-46 266.77,-56.08 275.61,-50.24 270.03,-46"/>
</g>
<!-- Node7 -->
<g id="node7" class="node">
<title>Node7</title>
<g id="a_node7"><a xlink:href="../../d9/d37/classSedWaterfallPlot.html" target="_top" xlink:title=" ">
<polygon fill="white" stroke="black" points="350.5,-0.5 350.5,-19.5 439.5,-19.5 439.5,-0.5 350.5,-0.5"/>
<text text-anchor="middle" x="395" y="-7.5" font-family="FreeSans" font-size="10.00">SedWaterfallPlot</text>
</a>
</g>
</g>
<!-- Node1&#45;&gt;Node7 -->
<g id="edge6" class="edge">
<title>Node1&#45;&gt;Node7</title>
<path fill="none" stroke="midnightblue" d="M290.91,-52.64C316.24,-42.5 351.43,-28.43 373.71,-19.52"/>
<polygon fill="midnightblue" stroke="midnightblue" points="289.38,-49.48 281.39,-56.44 291.98,-55.98 289.38,-49.48"/>
</g>
<!-- Node2 -->
<g id="node2" class="node">
<title>Node2</title>
<g id="a_node2"><a xlink:href="../../db/d38/classSedOutput.html" target="_top" xlink:title=" ">
<polygon fill="white" stroke="black" points="228.5,-112.5 228.5,-131.5 291.5,-131.5 291.5,-112.5 228.5,-112.5"/>
<text text-anchor="middle" x="260" y="-119.5" font-family="FreeSans" font-size="10.00">SedOutput</text>
</a>
</g>
</g>
<!-- Node2&#45;&gt;Node1 -->
<g id="edge1" class="edge">
<title>Node2&#45;&gt;Node1</title>
<path fill="none" stroke="midnightblue" d="M260,-101.8C260,-92.91 260,-82.78 260,-75.75"/>
<polygon fill="midnightblue" stroke="midnightblue" points="256.5,-102.08 260,-112.08 263.5,-102.08 256.5,-102.08"/>
</g>
<!-- Node3 -->
<g id="node3" class="node">
<title>Node3</title>
<g id="a_node3"><a xlink:href="../../d9/dfe/classSedBase.html" target="_top" xlink:title=" ">
<polygon fill="white" stroke="black" points="232,-168.5 232,-187.5 288,-187.5 288,-168.5 232,-168.5"/>
<text text-anchor="middle" x="260" y="-175.5" font-family="FreeSans" font-size="10.00">SedBase</text>
</a>
</g>
</g>
<!-- Node3&#45;&gt;Node2 -->
<g id="edge2" class="edge">
<title>Node3&#45;&gt;Node2</title>
<path fill="none" stroke="midnightblue" d="M260,-157.8C260,-148.91 260,-138.78 260,-131.75"/>
<polygon fill="midnightblue" stroke="midnightblue" points="256.5,-158.08 260,-168.08 263.5,-158.08 256.5,-158.08"/>
</g>
</g>
</svg>
